<svg width="960" height="958" viewBox="0 0 960 958" fill="none" xmlns="http://www.w3.org/2000/svg">
<g clip-path="url(#clip0_5_55)">

<path d="M249.039 241.818C249.486 241.64 249.933 241.462 251.063 241.363C259.775 239.578 267.842 237.862 275.797 235.724C277.412 235.29 278.601 233.268 279.986 231.978C279.986 231.978 280.001 232.001 280.338 231.898C284.707 230.036 289.778 229.254 288.973 222.955C288.973 222.955 289 223 289.315 222.91C290.746 221.535 291.862 220.251 292.979 218.967C292.979 218.967 293.001 219.001 293.334 219.032C296.434 218.032 299.201 217.001 301.984 215.985C302.001 215.999 302.035 216.028 302.033 216.419C302.328 218.821 302.624 220.831 302.812 223.085C302.418 223.534 302.132 223.739 301.527 223.915C299.817 223.673 298.426 223.46 297.006 223.242C296.749 224.783 296.449 226.044 296.354 227.321C296.277 228.341 296.449 229.379 296.511 230.409C297.681 230.15 298.852 229.891 300.334 229.46C301.114 229.246 301.582 229.204 302.267 229.277C303.336 229.136 304.19 228.88 305.398 228.471C306.522 228.277 307.291 228.235 308.276 228.303C309.343 228.159 310.193 227.905 311.369 227.519C312.165 227.373 312.633 227.358 313.387 227.461C315.126 227.228 316.579 226.876 318.383 226.363C319.498 226.162 320.262 226.124 321.239 226.205C322.314 226.131 323.176 225.936 324.36 225.581C325.158 225.394 325.633 225.367 326.46 225.467C332.888 224.674 338.965 223.753 345.436 222.668C347.245 222.413 348.66 222.325 350.431 222.38C358.535 221.525 366.284 220.527 374.397 219.388C375.535 219.251 376.309 219.255 377.419 219.398C380.182 219.216 382.608 218.894 385.42 218.421C386.902 218.277 387.999 218.286 389.473 218.438C391.831 218.723 393.812 218.981 395.794 218.989C404.071 219.022 412.351 219.076 420.626 218.934C427.403 218.818 434.176 218.435 441.353 218.095C442.826 218.17 443.897 218.32 445.222 218.715C446.236 219.268 446.973 219.765 447.758 219.857C461.041 221.41 474.059 223.81 485.644 231.108C486.438 231.608 487.551 231.603 488.817 231.906C490.401 233.018 491.685 234.055 493.104 235.352C493.865 236.051 494.489 236.491 495.082 236.939C495.051 236.946 495.067 236.885 495.203 237.166C495.999 237.922 496.659 238.396 497.624 238.971C499.982 241.31 502.035 243.549 504.191 246.075C504.869 246.908 505.443 247.454 506.124 248.061C506.231 248.121 506.213 248.365 506.286 248.691C506.905 249.678 507.451 250.339 508.277 251.193C509.802 253.546 511.289 255.603 512.257 257.88C524.848 287.482 520.95 315.696 503.838 342.12C488.348 366.039 466.477 383.586 442.985 399.095C415.03 417.55 384.647 431.131 353.277 442.61C307.495 459.363 260.742 471.523 211.631 472.543C210.399 472.569 209.173 472.943 207.445 473.241C208.179 475.233 208.665 476.785 209.312 478.267C216.354 494.407 225.893 509.021 236.846 522.724C256.203 546.939 278.871 567.765 303.38 586.592C320.193 599.508 337.865 611.072 357.857 618.724C361.749 620.213 363.349 619.228 365.271 615.869C376.687 595.921 387.837 575.797 399.998 556.307C433.058 503.32 466.269 450.421 500.019 397.872C524.853 359.206 550.194 320.842 578.87 284.827C580.271 283.068 581.016 280.752 581.904 278.628C587.036 266.348 591.614 253.804 597.379 241.831C601.99 232.254 607.942 223.296 617.336 216.907C621.148 215.695 624.588 214.562 628.39 213.326C629.491 213.291 630.232 213.358 631.147 213.633C632.267 213.76 633.213 213.679 634.158 213.598C633.767 212.733 633.376 211.867 632.725 210.879C631.963 210.205 631.46 209.655 630.96 208.7C630.421 203.811 622.693 196.474 616.702 194.876C615.959 194.174 615.475 193.599 615.051 192.658C615.641 187.949 619.024 187.413 622.381 186.843C622.82 187.163 623.26 187.484 623.803 188.366C623.277 192.124 621.443 196.034 627.809 194.726C628.423 194.6 629.555 196.659 630.341 197.778C631.729 199.752 632.681 202.202 634.452 203.7C637.897 206.612 642.104 208.652 645.417 211.685C651.847 217.572 658.073 223.576 667.211 224.912C667.211 224.912 667.645 224.965 667.968 225.393C670.015 226.825 671.738 227.828 673.461 228.832C674.634 229.872 675.806 230.912 677.123 232.535C677.728 233.753 678.189 234.389 678.649 235.025C678.959 235.194 679.161 235.449 679.21 236.52C680.127 241.514 681.088 245.777 681.767 249.931C676.835 248.994 672.892 250.069 669.948 254.292C669.681 254.802 669.423 254.979 668.812 255.179C668.053 255.948 667.571 256.585 666.994 257.512C666.192 258.53 665.484 259.257 664.528 260.133C663.878 260.916 663.476 261.552 662.985 262.464C662.493 263.154 662.091 263.567 661.45 264.16C660.859 265.034 660.505 265.729 660.054 266.72C658.956 268.34 657.955 269.662 656.683 271.189C656.055 272.21 655.699 273.027 655.309 274.172C646.09 290.502 639.883 307.719 635.148 325.442C624.103 366.777 617.808 408.857 616.52 451.637C615.293 492.352 616.508 532.908 626.277 572.73C628.35 581.177 631.259 589.419 633.845 597.959C635.067 597.298 635.501 597.216 635.6 596.988C638.521 590.279 641.281 583.498 644.322 576.845C665.169 531.227 689.374 487.368 714.291 443.894C725.62 424.129 737.355 404.598 749.265 384.858C750.317 383.265 751.008 381.775 751.731 380.041C751.865 379.471 752.06 379.214 752.645 378.875C753.531 377.563 754.119 376.403 754.765 374.935C755.658 373.424 756.493 372.222 757.568 370.823C758.14 369.881 758.471 369.136 758.874 368.076C760.351 365.51 761.758 363.259 763.422 360.831C764.064 359.93 764.448 359.207 764.901 358.163C766.386 355.566 767.802 353.29 769.475 350.823C771.262 345.829 770.083 344.082 763.962 342.022C763.988 342.004 763.96 342.061 763.894 341.731C762.865 340.603 761.902 339.805 760.676 338.892C759.942 338.193 759.47 337.608 758.993 336.629C758.157 329.641 756.996 328.593 750.99 329.005C751 328.998 750.99 329.018 750.859 328.752C750.126 328.006 749.522 327.526 748.949 327.033C748.978 327.02 748.95 327.079 748.894 326.718C747.292 325.018 745.746 323.678 743.981 322.255C743.507 321.788 743.252 321.404 743.052 320.676C744.063 318.55 745.021 316.767 746.28 314.893C748.04 314.868 749.499 314.935 750.958 315.002C751.236 315.192 751.514 315.382 751.885 316.135C751.986 317.132 751.996 317.567 751.776 318.142C751.221 318.959 750.896 319.636 750.572 320.312C750.846 320.404 751.121 320.496 751.395 320.588C751.596 319.723 751.797 318.858 752.272 318.186C755.96 321.661 759.997 324.538 760.243 330.228C761.579 330.307 762.772 330.135 764.226 330.17C766.327 331.584 768.166 332.789 770.006 333.995C770.006 333.995 770 334 770.095 334.327C773.783 340.328 775.258 340.742 777.928 336.827C777.928 336.827 778.065 336.375 778.491 336.032C779.581 334.386 780.245 333.083 780.909 331.78C780.909 331.78 781.059 331.329 781.508 331.008C782.602 329.372 783.246 328.056 783.891 326.74C784.256 325.984 784.621 325.228 785.446 324.104C786.251 323.111 786.595 322.486 786.939 321.861C786.971 321.696 787.003 321.531 787.451 321.027C788.202 320.018 788.537 319.348 788.871 318.678C788.871 318.678 788.949 318.284 789.391 317.994C790.818 315.934 791.803 314.164 792.788 312.393C792.788 312.393 792.744 312.15 793.122 311.881C793.905 310.825 794.31 310.038 794.715 309.25C794.704 308.9 794.813 308.593 795.469 307.999C796.215 306.984 796.535 306.299 796.854 305.613C796.854 305.613 796.953 305.245 797.353 304.946C798.11 303.919 798.467 303.192 798.824 302.465C798.824 302.465 798.855 302.175 799.272 301.948C802.753 296.721 805.817 291.72 808.88 286.719C809.237 285.963 809.595 285.208 810.482 284.111C811.977 282.103 812.941 280.437 813.905 278.772C814.525 277.649 815.145 276.525 816.335 275.094C818.242 272.455 819.578 270.125 820.915 267.795C820.915 267.795 821.1 267.334 821.584 267.058C824.269 263.261 826.469 259.74 828.669 256.218C829.03 255.59 829.392 254.962 830.275 254.036C835.827 246.733 840.856 239.728 845.884 232.723C846.183 232.262 846.482 231.802 847.272 231.083C848.192 230.252 848.622 229.679 849.052 229.106C849.052 229.106 849.037 229.044 849.412 228.94C856.152 227.565 862.468 225.662 868.891 225.181C877.252 224.555 878.267 226.359 875.667 234.089C875.407 234.86 875.335 235.694 875.176 236.499C874.718 237.291 874.259 238.082 873.246 239.159C872.218 240.202 871.745 240.96 871.271 241.718C869.873 243.672 868.475 245.626 866.578 247.928C865.74 248.885 865.401 249.493 865.063 250.101C865.063 250.101 865.032 250.046 864.781 250.206C864.078 251.069 863.626 251.771 863.174 252.474C863.174 252.474 863.074 252.813 862.68 253.049C861.902 253.918 861.519 254.55 861.135 255.183C861.135 255.183 861.126 255.118 860.836 255.241C859.739 256.68 858.932 257.996 858.126 259.313C858.126 259.313 858.014 259.719 857.523 259.953C855.798 262.049 854.564 263.909 853.329 265.77C852.962 266.401 852.594 267.032 851.75 267.974C850.877 268.925 850.482 269.566 850.086 270.207C850.095 270.519 849.978 270.773 849.224 271.185C848.201 272.342 847.689 273.284 847.176 274.226C847.176 274.226 847.165 274.156 846.875 274.267C845.766 275.691 844.947 277.005 844.128 278.318C844.128 278.318 844.024 278.718 843.562 278.967C841.772 281.241 840.445 283.265 839.117 285.289C839.117 285.289 839.011 285.705 838.545 285.959C834.426 291.57 830.771 296.927 827.116 302.284C827.116 302.284 826.976 302.709 826.565 302.984C825.786 303.867 825.417 304.474 825.049 305.081C825.049 305.081 825.018 305.025 824.765 305.216C824.098 306.178 823.684 306.95 823.27 307.721C822.904 308.363 822.539 309.006 821.64 309.938C819.802 312.336 818.497 314.445 817.191 316.553C817.191 316.553 817.136 316.843 816.752 317.069C815.951 317.95 815.535 318.604 815.119 319.259C814.508 320.37 813.897 321.482 812.768 322.92C811.865 323.909 811.48 324.571 811.096 325.233C811.096 325.233 810.943 325.678 810.463 325.946C806.998 330.83 804.011 335.447 801.025 340.064C800.124 341.556 799.224 343.049 797.808 344.911C796.91 345.977 796.526 346.674 796.143 347.372C796.143 347.372 796.072 347.746 795.676 348.025C794.892 348.968 794.505 349.631 794.117 350.294C794.117 350.294 794.021 350.708 793.553 350.988C789.233 356.501 791.931 361.818 799.026 362.98C799.026 362.98 799 363 798.921 363.354C799.047 365.724 798.544 368.942 799.578 369.551C804.348 372.36 802.281 375.44 800.4 378.577C799.744 377.981 799.372 377.502 798.86 376.751C798.087 375.988 797.453 375.498 796.527 374.868C794.497 372.801 792.758 370.874 790.924 368.631C789.268 366.435 788.874 362.656 784.737 365.017C783.643 366.549 782.728 367.744 781.56 369.119C780.924 370.013 780.54 370.727 780.1 371.742C779.324 373.026 778.605 374.009 777.565 375.116C776.224 377.016 775.203 378.79 774.13 380.856C773.608 381.758 773.137 382.37 772.428 383.143C771.831 383.966 771.473 384.627 771.074 385.494C771.034 385.7 770.726 385.987 770.481 386.164C769.877 387.044 769.518 387.747 769.131 388.617C769.103 388.785 768.832 388.99 768.579 389.154C767.93 389.995 767.534 390.672 767.071 391.674C765.907 393.66 764.811 395.321 763.474 397.147C762.864 397.981 762.495 398.649 762.045 399.647C739.683 436.694 716.679 472.999 695.342 510.257C677.236 541.875 661.117 574.629 643.954 606.792C641.425 611.531 641.297 615.543 645.126 619.366C651.683 625.914 657.711 633.197 665.068 638.689C674.007 645.363 684.351 648.41 695.643 643.588C697.2 642.923 699.379 643.714 701.269 643.831C700.515 645.67 700.255 648.106 698.904 649.228C695.866 651.751 692.286 653.623 688.602 655.752C687.119 656.296 685.962 656.847 684.419 657.403C682.32 657.861 680.607 658.314 678.564 658.712C677.822 658.809 677.409 658.96 676.664 659.029C675.89 659.039 675.448 659.13 674.64 659.099C671.546 658.962 668.818 658.947 665.826 658.738C664.71 658.478 663.859 658.414 662.662 658.169C660.544 657.741 658.77 657.493 656.688 657.035C654.252 656.191 652.124 655.558 649.733 654.712C647.625 653.892 645.78 653.283 643.732 652.387C642.687 651.757 641.846 651.413 640.787 650.804C630.518 644.704 621.921 637.206 614.608 628.169C597.048 606.468 585.422 581.653 577.221 555.249C554.542 482.227 552.506 408.235 567.781 333.549C568.225 331.381 568.565 329.192 568.954 327.012C568.542 326.854 568.131 326.696 567.719 326.538C498.368 421.383 435.812 520.593 377.597 622.044C378.28 623.111 378.346 623.348 378.464 623.378C397.35 628.121 425.417 617.173 428.071 598.752C428.196 597.881 429.384 597.164 430.078 596.375C430.856 597.323 432.178 598.211 432.293 599.234C432.492 600.997 432.116 602.889 431.674 604.649C428.726 616.386 422.149 625.377 411.454 631.276C399.329 637.965 386.106 640.316 372.528 640.921C368.503 641.101 366.163 642.444 364.4 646.023C353.805 667.525 343.049 688.946 332.363 710.403C331.324 712.488 330.659 714.817 329.325 716.678C328.273 718.147 326.459 719.07 324.983 720.236C324.262 718.529 323.056 716.857 322.933 715.108C322.75 712.491 322.772 709.613 323.672 707.207C329.083 692.755 334.771 678.407 340.602 663.814C341.143 662.828 341.448 662.052 341.741 661.037C341.794 660.461 341.97 660.201 342.507 659.808C343.071 658.811 343.384 658.021 343.753 656.913C344.622 655.068 345.437 653.54 346.5 651.804C347.061 650.802 347.373 650.009 347.72 648.986C347.857 648.449 348.041 648.204 348.547 647.81C349.103 646.824 349.418 646.047 349.767 645.025C349.915 644.457 350.118 644.205 350.644 643.829C352.599 638.869 348.768 639.543 346.297 639.051C337.067 637.21 327.766 635.69 318.601 633.575C311.055 631.834 303.663 629.422 295.878 627.329C294.375 626.802 293.198 626.253 291.87 625.397C290.043 624.436 288.365 623.781 286.388 623.104C285.737 622.893 285.386 622.705 284.867 622.226C283.258 621.364 281.816 620.794 280.114 620.23C279.576 620.041 279.299 619.846 278.859 619.371C275.957 617.787 273.218 616.483 270.148 615.122C266.219 612.928 262.621 610.792 258.855 608.416C258.01 607.828 257.332 607.481 256.461 607.096C256.267 607.059 256.015 606.756 255.837 606.508C254.948 605.893 254.238 605.526 253.216 605.076C250.948 603.626 248.991 602.26 246.868 600.631C246.001 599.961 245.302 599.553 244.343 599.088C243.736 598.649 243.388 598.266 242.915 597.577C241.518 596.522 240.245 595.773 238.667 594.943C237.579 594.178 236.797 593.495 235.889 592.51C234.71 591.523 233.657 590.838 232.34 590.102C231.729 589.665 231.382 589.28 230.921 588.591C229.787 587.585 228.766 586.884 227.782 586.18C227.82 586.178 227.824 586.254 227.752 585.915C224.715 583.1 221.749 580.624 218.819 578.148C218.854 578.148 218.854 578.219 218.771 577.886C217.687 576.745 216.685 575.936 215.397 575.001C213.7 573.346 212.291 571.817 210.816 569.941C208.531 567.385 206.311 565.176 203.854 562.885C203.347 562.394 203.079 561.986 202.72 561.257C202.023 560.328 201.416 559.72 200.846 559.117C200.882 559.122 200.871 559.194 200.804 558.861C199.502 557.347 198.267 556.166 197.014 554.994C196.995 555.003 197.015 554.967 196.972 554.619C195.32 552.504 193.712 550.737 191.874 548.844C191.379 548.275 191.114 547.832 190.765 547.088C190.131 546.188 189.582 545.589 188.774 544.841C187.983 543.863 187.449 543.036 186.831 541.927C186.222 541.093 185.696 540.54 184.913 539.785C183.737 538.136 182.819 536.689 181.816 534.961C181.215 534.116 180.697 533.553 180.037 532.899C179.894 532.808 179.84 532.473 179.803 532.107C178.576 530.156 177.388 528.571 176.054 526.886C175.908 526.786 175.844 526.439 175.778 526.14C175.214 525.222 174.715 524.604 174.075 523.847C173.933 523.708 173.875 523.316 173.835 522.978C172.952 521.421 172.11 520.202 171.078 518.851C170.666 518.477 170.572 518.193 170.57 517.521C170.023 516.45 169.516 515.723 168.773 514.795C167.979 513.507 167.42 512.42 166.78 511.069C165.791 510.835 164.884 510.865 163.916 511.201C163.471 511.975 163.088 512.444 162.466 513.074C161.842 513.882 161.457 514.53 161.013 515.512C158.32 519.572 155.686 523.296 152.772 527.187C152.019 528.292 151.548 529.232 150.976 530.478C149.875 532.176 148.875 533.566 147.569 535.084C146.518 536.488 145.772 537.764 145.01 539.023C144.994 539.006 145.038 539.021 144.76 539.213C144.084 540.19 143.687 540.976 143.227 542.068C142.587 543.243 142.01 544.111 141.265 545.159C142.412 546.885 143.728 548.432 145.345 550.105C146.353 551.038 147.059 551.847 147.503 552.832C145.793 556.95 147.424 558.355 153.009 557.993C152.997 558 153.014 557.976 153.103 558.306C155.787 561.094 158.382 563.552 160.99 566.004C161.003 565.997 160.99 566.023 161.084 566.35C166.348 572.422 171.368 578.314 176.756 583.847C179.119 586.274 182.234 587.968 185.004 589.998C184.999 590 185.005 589.992 185.065 590.334C188.74 594.122 192.355 597.568 195.986 601.005C196 600.995 195.986 601.027 196.085 601.356C198.794 604.12 201.403 606.554 204.007 608.994C204 609 204.011 608.986 204.102 609.315C206.791 612.098 209.389 614.552 211.994 617.002C212.001 616.998 211.994 617.012 212.09 617.34C214.781 620.116 217.377 622.564 219.989 625.004C220.004 624.996 219.988 625.027 220.084 625.352C222.175 628.719 224.169 631.761 226.107 634.716C227.736 635.923 229.49 637.193 231.212 638.504C234.478 640.992 237.726 643.504 240.993 646.002C241.005 645.998 240.993 646.019 241.087 646.346C246.473 651.77 251.765 656.866 257.031 661.979C257.005 661.996 257.038 661.943 257.102 662.271C258.117 663.396 259.068 664.192 260.009 664.995C259.999 665.002 260.011 664.98 260.101 665.306C261.783 667.093 263.376 668.555 264.987 670.008C265.005 670 264.983 670.033 265.078 670.359C269.847 675.942 273.792 681.682 279.401 686.311C287.698 693.16 294.877 701.369 302.506 709.023C323.293 729.879 344.009 750.804 364.887 771.567C369.66 776.314 374.971 780.521 380.021 784.99C380.008 785.003 380.023 784.968 380.117 785.298C385.399 791.221 390.596 796.806 395.767 802.415C397.604 804.407 399.875 806.761 397.321 809.232C396.174 810.341 393.402 809.77 391.368 809.961C391.368 809.961 391.012 809.728 390.863 809.192C389.718 807.834 388.722 807.013 387.726 806.193C387.726 806.193 387.81 806.192 387.739 805.898C386.691 804.772 385.714 803.94 384.737 803.108C384.165 802.692 383.593 802.276 382.866 801.259C381.72 799.833 380.729 799.007 379.738 798.181C379.738 798.181 379.82 798.181 379.787 797.879C379.336 795.145 378.643 793.04 375.425 793.94C375.425 793.94 375.053 793.696 374.894 793.137C371.919 788.847 371.646 782.401 364.649 783.138C364.649 783.138 364.252 782.971 364.117 782.468C363.68 778.943 363.388 776.032 359.421 775.394C358.507 775.247 357.798 773.829 357.144 772.93C357.473 772.66 357.654 772.457 357.836 772.254C357.711 772.248 357.517 772.188 357.473 772.245C357.292 772.479 357.156 772.748 356.783 772.807C355.885 767.947 352.612 767.04 348.643 767.139C348.643 767.139 348.249 766.982 348.109 766.456C348.551 760.189 346.044 757.551 340.233 758.224C340.072 758.243 339.903 758.2 339.737 758.186C339.737 758.186 339.818 758.185 339.745 757.889C338.681 756.769 337.691 755.945 336.7 755.121C336.145 754.684 335.59 754.247 334.878 753.214C333.732 751.8 332.743 750.982 331.754 750.164C331.754 750.164 331.838 750.164 331.763 749.871C330.7 748.756 329.714 747.934 328.727 747.112C328.164 746.681 327.601 746.251 326.877 745.224C325.719 743.816 324.722 743.003 323.725 742.191C323.725 742.191 323.811 742.19 323.745 741.891C321.238 739.349 318.797 737.105 316.356 734.861C316.356 734.861 316.15 734.852 316.083 734.433C314.319 724.897 306.42 722.166 299.726 718.195C299.726 718.195 299.808 718.195 299.739 717.887C297.385 712.659 293.945 708.948 288.71 707.118C288.71 707.118 288.293 706.945 288.113 706.431C286.535 704.671 285.138 703.425 283.741 702.179C283.741 702.179 283.824 702.179 283.75 701.884C282.684 700.766 281.692 699.944 280.7 699.121C280.152 698.668 279.603 698.215 278.89 697.168C277.725 695.78 276.725 694.985 275.726 694.191C275.726 694.191 275.811 694.19 275.745 693.891C270.799 687.775 267.272 680.553 259.359 677.888C258.691 677.339 258.024 676.789 257.112 675.628C252.318 670.653 247.768 666.29 243.217 661.927C241.599 660.418 239.981 658.91 238.119 656.867C237.393 655.882 236.911 655.43 236.428 654.979C236.071 654.714 235.713 654.449 235.168 653.551C234.14 651.743 233.442 650.427 232.438 649.416C225.709 642.64 218.99 635.851 212.106 629.234C209.36 626.595 206.202 624.383 203.232 621.977C203.232 621.977 202.931 621.813 202.801 621.303C199.512 617.834 196.353 614.875 193.194 611.917C193.194 611.917 193.074 611.893 192.975 611.515C191.136 609.511 189.395 607.887 187.654 606.262C187.654 606.262 187.74 606.262 187.697 605.944C183.21 601.386 178.766 597.145 174.321 592.905C174.005 592.694 173.689 592.484 173.362 591.724C174.353 587.223 172.201 587.525 169.619 588.407C169.619 588.407 169.664 588.306 169.791 588.043C171.539 585.243 171.278 583.698 167.994 582.79C166.246 582.307 163.784 580.975 163.416 579.564C162.276 575.191 158.921 574.979 155.625 574.298C155.625 574.298 155.71 574.296 155.653 573.987C154.585 572.841 153.572 572.005 152.56 571.169C151.473 570.214 150.386 569.259 149.097 567.682C145.581 563.288 142.429 559.349 138.832 555.871C138.024 555.09 135.657 555.921 134.008 556.011C134.008 556.011 133.999 556 133.7 556.15C132.642 557.639 131.883 558.977 131.124 560.316C131.124 560.316 131.017 560.721 130.613 561.012C129.844 561.963 129.479 562.623 129.115 563.283C129.115 563.283 129.05 563.69 128.66 564C127.89 564.979 127.51 565.649 127.13 566.318C127.13 566.318 127.025 566.728 126.575 567.009C124.79 569.628 123.455 571.966 122.121 574.304C122.121 574.304 122.045 574.71 121.59 574.978C120.445 576.55 119.756 577.854 119.067 579.158C119.015 579.318 118.962 579.479 118.5 579.996C117.78 581.05 117.471 581.746 117.161 582.443C117.161 582.443 117.073 582.794 116.637 583.049C115.508 584.635 114.814 585.965 114.121 587.295C113.764 588.033 113.406 588.772 112.545 589.867C109.095 595.363 106.148 600.504 103.201 605.644C103.106 605.971 103.011 606.299 102.43 606.951C101.393 608.431 100.842 609.586 100.291 610.74C99.8744 611.676 99.4575 612.612 98.5837 613.957C97.8079 615.092 97.4891 615.818 97.1702 616.545C96.1838 618.526 95.1974 620.508 93.7316 622.936C92.9091 624.138 92.5661 624.894 92.2231 625.651C91.5294 627.265 90.8357 628.88 89.6694 630.939C88.8734 632.147 88.55 632.91 88.2266 633.674C88.1674 633.995 88.1081 634.316 87.6243 635.024C86.9164 636.214 86.633 637.016 86.3496 637.819C85.8968 639.03 85.4439 640.241 84.5369 641.904C82.7473 644.636 81.5369 647.001 80.0466 649.174C77.8607 652.362 74.6442 654.082 71.0135 652.477C67.1525 650.77 67.6654 646.903 68.7508 643.765C71.7246 635.168 75.0992 626.71 78.2469 618.172C78.922 616.34 79.3093 614.403 79.8292 612.514C79.8292 612.514 79.8119 612.217 80.2441 611.969C81.4019 610.025 82.1275 608.329 82.8531 606.633C83.8884 604.602 84.9237 602.57 86.4663 600.108C88.1955 597.18 89.4174 594.682 90.6394 592.184C91.8498 589.929 93.0602 587.675 94.816 585.013C95.84 583.548 96.3186 582.489 96.7972 581.431C96.7972 581.431 96.8247 581.153 97.2421 580.932C100.021 576.571 102.383 572.432 104.745 568.292C104.745 568.292 104.672 568.093 105.06 567.878C105.934 566.701 106.42 565.74 106.906 564.778C106.906 564.778 106.994 564.332 107.406 563.995C108.161 562.936 108.503 562.212 108.846 561.489C108.846 561.489 108.914 561.176 109.343 560.945C111.412 557.892 113.053 555.07 114.693 552.248C114.817 551.941 114.941 551.634 115.558 551.043C116.996 549.079 117.94 547.398 118.885 545.718C118.885 545.718 118.988 545.302 119.446 545.038C123.126 541.349 122.866 536.782 119.674 534.68C116.561 532.632 113.707 530.175 110.83 527.788C106.926 524.551 103.107 521.21 99.2521 517.914C97.86 516.614 96.4678 515.315 94.888 513.373C90.4309 507.138 86.1774 501.534 81.8639 495.976C81.4952 495.501 80.6759 495.405 80.153 495.016C77.6765 493.173 75.227 491.294 72.774 489.419C70.0481 487.336 67.3288 485.244 64.6065 483.156C63.1872 481.872 61.7678 480.588 60.1374 478.686C58.0433 476.341 56.1602 474.615 54.2771 472.888C54.2771 472.888 54.1284 472.925 54.0004 472.535C51.9407 469.299 50.0089 466.453 48.0771 463.607C48.1791 463.463 48.2811 463.318 48.984 463.022C51.3865 460.884 53.188 458.896 54.9895 456.909C55.0495 456.61 55.1941 456.359 56.0142 456.033C58.5098 455.039 60.6751 454.494 62.2606 453.225C64.8965 451.115 67.2315 448.608 69.5651 446.146C73.9476 441.524 79.524 437.776 80.9657 430.943C80.9657 430.943 80.9962 430.993 81.2427 430.86C81.9825 430.13 82.4759 429.533 82.9692 428.937C83.4318 428.344 83.8943 427.751 84.909 426.937C85.9716 426.103 86.482 425.491 86.9923 424.878C87.4485 424.315 87.9047 423.752 89.0263 423.081C93.953 423.126 95.2047 420.665 94.9613 416.905C95.4348 416.331 95.9083 415.757 97.0481 415.077C99.8046 414.642 101.895 414.314 103.992 413.994C103.999 414.002 104.012 414.021 103.88 414.327C103.205 422.057 95.7414 423.397 91.9302 427.854C91.6584 427.522 91.4529 427.339 91.2474 427.157C91.2397 427.284 91.1774 427.482 91.2337 427.525C91.4714 427.707 91.7444 427.843 91.9258 428.24C90.3762 428.781 88.9052 429.078 86.2779 429.609C87.4953 431.686 88.7217 433.778 89.8006 436.162C88.5104 437.45 87.3677 438.446 85.9149 439.234C82.1846 437.29 79.9991 439.081 78.0619 441.644C75.887 444.521 73.5145 447.27 71.5872 450.302C70.8454 451.47 71.0928 453.265 70.7757 455.042C69.9563 455.951 69.2506 456.592 68.2517 457.086C66.5714 456.484 65.1843 456.03 63.7972 455.576C64.1291 456.945 64.4482 458.318 64.8026 459.681C64.8809 459.982 65.0841 460.251 65.1192 460.81C64.2646 461.719 63.5207 462.352 62.4853 463.098C58.6533 465.376 61.6558 467.727 61.8548 470.069C61.527 470.339 61.3468 470.542 61.1666 470.745C61.2909 470.751 61.4835 470.81 61.5276 470.753C61.709 470.521 61.8453 470.253 62.3212 470.106C64.0643 471.287 65.6309 472.215 66.8772 473.463C70.653 477.243 74.3047 481.148 77.8573 485.071C77.5293 485.34 77.3489 485.543 77.1685 485.745C77.2926 485.75 77.4851 485.808 77.5289 485.752C77.7093 485.518 77.8444 485.25 78.2646 485.186C80.3526 486.586 82.1722 487.795 83.9962 489.002C84.0006 488.999 83.9961 489.008 84.0882 489.332C85.7801 491.108 87.3797 492.559 88.9913 494.005C89.0033 493.999 88.9886 494.022 89.0845 494.327C90.1163 495.423 91.0523 496.213 91.9952 497C92.0021 496.997 91.9973 497.011 92.0897 497.335C93.7863 499.106 95.3907 500.553 96.9978 502C97.0006 501.999 96.9992 502.005 96.9768 502.342C96.9579 503.97 96.4229 505.957 97.0497 506.442C102.238 510.453 107.642 514.186 112.994 517.999C113.007 517.995 112.996 518.02 113.089 518.326C114.112 519.426 115.04 520.221 115.985 521.007C116.002 520.997 115.983 521.03 115.99 521.406C117.333 523.857 118.669 525.93 119.856 528.071C119.527 528.341 119.345 528.544 119.164 528.747C119.289 528.753 119.484 528.813 119.527 528.757C119.708 528.522 119.844 528.252 120.284 528.155C123.29 529.33 125.013 535.332 128.999 529.997C129.001 530 128.996 529.998 129.27 529.814C129.96 528.877 130.377 528.123 130.801 527.241C130.81 527.113 131.044 527.005 131.343 526.86C132.396 525.401 133.151 524.087 133.968 522.459C135.026 520.764 136.023 519.385 137.324 517.864C139.042 515.375 140.457 513.029 141.943 510.377C142.998 508.713 143.981 507.355 145.237 505.816C145.94 504.895 146.37 504.157 146.897 503.105C148.837 500.023 150.501 497.111 152.566 494.519C155.681 490.61 156.247 486.742 155.387 481.633C154.286 475.087 152.791 467.031 155.529 461.722C162.771 447.681 175.344 438.601 190.442 433.756C193.856 432.661 196.216 431.303 198.321 428.526C216.322 404.779 234.103 380.853 252.64 357.529C264.015 343.214 276.445 329.721 288.724 316.15C292.978 311.449 297.244 311.58 300.913 315.209C305.373 319.622 305.682 323.961 301.891 328.775C289.113 344.997 276.137 361.069 263.608 377.481C243.905 403.291 224.468 429.304 205.062 455.337C203.861 456.948 203.907 459.487 203.372 461.595C205.208 461.967 207.078 462.783 208.872 462.641C221.326 461.656 233.816 460.876 246.197 459.277C289.294 453.712 330.463 441.064 370.388 424.255C404.944 409.707 436.086 389.758 463.077 363.609C474.388 352.651 484.386 340.632 490.303 325.766C497.023 308.88 496.326 293.498 480.73 280.967C479.613 280.152 478.653 279.64 477.382 279.04C476.396 278.43 475.72 277.906 474.878 277.106C473.555 276.323 472.398 275.817 470.999 275.271C470.436 275.111 470.192 274.901 469.856 274.325C463.477 271.967 457.268 269.885 450.704 267.814C449.913 267.662 449.476 267.499 448.885 267.154C447.849 266.877 446.967 266.783 445.73 266.709C444.93 266.573 444.485 266.419 443.789 266.053C438.056 265.123 432.573 264.405 426.687 263.772C425.2 263.723 424.117 263.59 422.811 263.235C420.739 262.958 418.89 262.902 416.594 262.93C413.441 262.822 410.736 262.631 407.755 262.207C400.473 261.659 393.468 261.244 386.459 261.112C384.973 261.085 383.468 262.089 381.563 262.729C379.747 262.822 378.339 262.804 376.587 262.638C373.483 262.833 370.725 263.177 367.597 263.635C366.459 263.754 365.69 263.757 364.564 263.617C360.457 264.067 356.708 264.662 352.602 265.425C351.464 265.621 350.681 265.648 349.649 265.562C348.253 265.708 347.105 265.968 345.6 266.398C344.466 266.621 343.689 266.672 342.588 266.597C339.495 267.071 336.728 267.673 333.641 268.439C332.849 268.629 332.375 268.655 331.575 268.556C328.488 269.061 325.726 269.69 322.608 270.482C321.477 270.692 320.702 270.74 319.76 270.704C319.052 270.813 318.511 271.007 317.641 271.362C316.829 271.552 316.346 271.581 315.529 271.496C309.786 272.765 304.378 274.15 298.654 275.68C297.879 275.844 297.419 275.861 296.681 275.755C294.59 276.224 292.777 276.816 290.654 277.573C289.878 277.772 289.413 277.806 288.669 277.722C286.58 278.205 284.771 278.805 282.655 279.576C281.888 279.794 281.426 279.841 280.65 279.764C272.544 281.854 264.751 284.067 256.658 286.476C255.889 286.74 255.42 286.807 254.635 286.785C247.795 288.437 241.241 290.072 234.775 292.001C233.344 292.428 232.225 293.901 230.82 295.196C228.106 297.998 225.533 300.496 222.574 302.999C217.899 303.179 216.211 305.649 216.146 309.939C214.972 311.123 213.943 312.048 212.522 312.971C209.419 313.981 206.707 314.993 203.93 315.854C203.658 315.519 203.451 315.336 203.244 315.153C203.236 315.281 203.172 315.481 203.228 315.524C203.468 315.706 203.743 315.843 203.903 316.276C202.136 319.343 200.696 318.333 199.907 316.067C199.475 314.826 199.933 313.274 199.99 311.862C200.068 311.536 200.259 311.303 201.092 311.017C202.416 310.58 203.209 310.288 204.071 310.144C204.34 310.472 204.543 310.653 204.746 310.834C204.751 310.71 204.811 310.516 204.754 310.473C204.52 310.292 204.251 310.156 204.173 309.754C205.756 308.752 207.523 308.301 208.469 307.166C209.507 305.922 209.787 304.046 210.397 302.446C209.298 302.302 208.199 302.158 207.1 302.014C206.202 302.408 205.304 302.802 203.61 303.193C193.707 306.624 184.557 309.951 175.522 313.566C173.159 314.511 171.154 316.353 168.985 317.783C168.266 318.194 167.547 318.604 166.197 319.066C164.703 319.643 163.842 320.169 162.98 320.694C162.98 320.694 162.629 321.005 162.023 321.085C152.039 324.981 143.104 329.513 135.982 336.964C135.982 336.964 135.985 337.011 135.628 337.071C132.198 339.795 129.124 342.459 126.051 345.123C126.015 345.436 125.883 345.7 125.145 346.146C124.146 347.091 123.656 347.806 123.166 348.521C122.77 349.203 122.373 349.884 121.584 350.869C121.081 351.768 120.97 352.363 120.859 352.958C120.858 353.427 120.856 353.897 120.588 354.848C120.461 356.807 120.6 358.284 120.776 360.145C119.383 360.145 118.016 360.145 116.649 360.145C115.203 359.328 113.757 358.511 111.976 357.172C110.972 356.203 110.304 355.754 109.636 355.306C109.636 355.306 109.705 355.304 109.634 355.021C108.468 353.787 107.373 352.837 106.279 351.887C106.279 351.887 106.121 351.887 106.08 351.456C103.87 347.004 101.702 342.982 99.5348 338.961C99.39 338.528 99.2451 338.095 99.2085 337.04C98.7275 334.6 98.1383 332.782 97.5492 330.964C97.4469 330.511 97.3447 330.059 97.3915 328.903C98.9973 323.728 100.454 319.257 101.911 314.785C102.434 313.977 102.957 313.168 104.04 312.077C105.695 310.437 106.791 309.08 107.886 307.723C107.906 307.406 108.052 307.168 108.83 306.836C109.855 306.031 110.376 305.397 110.897 304.762C111.402 304.246 111.906 303.73 112.97 303.012C114.357 301.932 115.186 301.054 116.014 300.176C116.406 299.797 116.797 299.418 117.81 298.898C122.944 295.488 127.458 292.22 131.972 288.952C131.972 288.952 131.985 289.005 132.284 288.932C133.73 288.014 134.878 287.17 136.025 286.326C137.343 285.54 138.661 284.755 140.69 283.868C143.706 282.871 146.075 282.111 148.303 281.054C155.325 277.723 162.141 273.91 169.317 270.966C180.655 266.315 192.152 262.025 203.707 257.935C217.305 253.121 231.043 248.705 244.697 244.05C246.221 243.53 247.596 242.573 249.039 241.818ZM768.087 337.286C767.605 337.057 767.123 336.828 766.64 336.598C766.8 337.321 766.961 338.044 767.121 338.768C767.481 338.42 767.842 338.072 768.087 337.286ZM306.614 718.736C306.442 719.062 306.271 719.389 306.099 719.716C306.369 719.802 306.64 719.887 306.91 719.973C306.917 719.596 306.924 719.218 306.614 718.736ZM341.998 755.755C342.354 755.705 342.711 755.655 343.068 755.604C343.019 755.457 342.942 755.179 342.926 755.183C342.579 755.258 342.239 755.365 341.998 755.755ZM54.1861 466.954C54.2688 467.323 54.3448 467.693 54.4528 468.055C54.4585 468.074 54.7362 468.011 54.8873 467.987C54.757 467.627 54.6267 467.268 54.1861 466.954ZM391.099 803.536C390.743 803.396 390.387 803.256 390.031 803.115C390 803.265 389.928 803.539 389.943 803.544C390.303 803.661 390.671 803.749 391.099 803.536ZM237.972 651.15C238.223 651.452 238.474 651.753 238.725 652.054C238.837 651.952 238.948 651.85 239.06 651.748C238.772 651.481 238.484 651.214 237.972 651.15ZM382.775 795.011C382.514 795.237 382.253 795.463 381.992 795.689C382.102 795.8 382.212 795.91 382.322 796.021C382.547 795.759 382.772 795.498 382.775 795.011ZM303.005 715.244C302.648 715.294 302.291 715.345 301.934 715.395C301.983 715.542 302.06 715.82 302.076 715.817C302.423 715.741 302.763 715.634 303.005 715.244ZM64.2719 474.701C64.3155 474.917 64.3591 475.132 64.4027 475.348C64.5299 475.313 64.6572 475.278 64.7844 475.242C64.6908 475.041 64.5973 474.84 64.2719 474.701ZM246.892 657.126C246.859 657.356 246.826 657.586 246.793 657.817C246.921 657.824 247.05 657.83 247.178 657.837C247.161 657.605 247.144 657.372 246.892 657.126ZM251.14 663.966L250.858 664.009C250.858 664.009 251.132 664.083 251.14 663.966ZM253.967 666.859L254.011 667.147C254.011 667.147 254.085 666.867 253.967 666.859ZM350.963 763.856L351.008 764.147C351.008 764.147 351.084 763.864 350.963 763.856ZM366.878 779.922L367.112 780.099C367.112 780.099 366.968 779.845 366.878 779.922ZM199.119 612.079L198.885 611.901C198.885 611.901 199.029 612.156 199.119 612.079ZM794.849 367.038L795.152 366.991C795.152 366.991 794.857 366.912 794.849 367.038ZM799.143 372.966L798.857 373.01C798.857 373.01 799.135 373.084 799.143 372.966ZM219.123 299.08L218.886 298.901C218.886 298.901 219.032 299.158 219.123 299.08ZM57.0777 462.882L56.9051 463.11C56.9051 463.11 57.1523 462.97 57.0777 462.882Z" fill="currentColor"/>
<path d="M391.48 810.26C393.402 809.77 396.174 810.341 397.321 809.232C399.875 806.761 397.604 804.407 395.767 802.414C390.596 796.805 385.399 791.221 380.442 785.387C411.342 816.154 442.013 847.162 473.007 878.498C475.768 875.973 477.641 874.388 479.371 872.659C536.51 815.551 593.646 758.441 650.752 701.3C664.046 687.998 677.231 674.587 690.757 661.084C692.376 659.683 693.735 658.454 695.03 657.161C725.782 626.441 756.539 595.726 787.27 564.986C817.413 534.834 847.585 504.711 877.623 474.454C886.595 465.417 886.489 465.15 877.666 456.27C861.359 439.856 844.909 423.584 828.59 407.182C819.215 397.759 809.982 388.195 800.684 378.694C802.281 375.44 804.348 372.36 799.578 369.55C798.544 368.942 799.047 365.724 798.931 363.341C811.817 375.598 824.684 388.152 837.395 400.864C857.18 420.651 876.841 440.562 896.594 460.383C901.58 465.385 901.685 465.357 896.656 470.406C861.169 506.029 825.716 541.685 790.157 577.235C720.097 647.278 649.978 717.263 579.878 787.265C545.832 821.263 511.775 855.248 477.71 889.226C476.564 890.369 475.279 891.375 473.901 892.583C446.257 865.035 418.924 837.797 391.48 810.26Z" fill="currentColor"/>
<path d="M622.264 186.514C619.024 187.413 615.641 187.949 614.733 192.551C606.268 184.896 598.111 177.051 590.106 169.054C552.426 131.414 514.774 93.7446 477.166 56.0324C474.863 53.7234 473.293 53.1839 470.693 55.8247C455.037 71.7233 439.261 87.5048 423.439 103.239C412.707 113.912 401.835 124.443 391.093 134.68C391.699 132.94 392.071 131.463 392.801 130.192C396.023 124.582 396.06 124.604 390.103 122.033C406.153 105.848 422.197 89.6569 438.254 73.4788C449.857 61.7884 461.477 50.115 473.369 38.1528C474.687 39.1209 475.813 39.7464 476.69 40.622C519.924 83.8069 563.139 127.01 606.347 170.221C611.641 175.516 616.882 180.863 622.264 186.514Z" fill="currentColor"/>
<path d="M745.978 314.985C745.021 316.767 744.063 318.55 742.734 320.569C741.496 320.029 740.588 319.293 739.767 318.471C718.723 297.399 697.679 276.329 676.668 255.225C674.655 253.204 672.776 251.43 670.032 254.067C672.892 250.069 676.835 248.994 682.092 250.084C684.141 250.558 685.581 250.772 687.021 250.985C687.021 250.985 687 251.001 687.141 251.247C687.852 251.996 688.421 252.5 688.99 253.004C688.99 253.004 689.003 252.999 689.058 253.355C692.962 258.31 696.726 262.984 700.682 267.489C704.868 272.257 708.566 277.882 713.704 281.27C719.463 285.067 723.044 290.218 727.361 295.129C730.98 299.246 736.426 301.756 741.064 304.977C741.633 305.466 742.203 305.954 742.889 307.108C743.996 310.177 744.987 312.581 745.978 314.985Z" fill="currentColor"/>
<path d="M389.842 122.159C396.06 124.604 396.023 124.582 392.801 130.192C392.071 131.463 391.699 132.941 391.084 134.662C391.007 135.002 391.039 135.024 390.77 135.038C388.334 136.036 386.166 137.02 383.929 137.856C383.657 137.528 383.454 137.348 383.251 137.167C383.245 137.292 383.187 137.485 383.244 137.529C383.478 137.71 383.747 137.846 383.963 138.362C383.621 140.159 383.319 141.592 383.008 143.012C382.999 142.999 383.023 143.018 382.702 142.945C377.105 141.385 378.688 145.657 378.017 148.025C378.002 148.001 378.05 148.031 377.719 148.114C375.935 149.812 374.481 151.429 373.016 153.021C373.005 152.997 373.047 153.03 372.676 153.062C366.648 152.54 365.944 158.172 363.022 160.881C358.867 164.734 355.629 169.577 351.876 174.282C351.282 174.951 350.809 175.336 350.058 175.505C348.137 175.462 345.523 175.079 345.044 175.917C343.853 177.997 343.637 180.635 343.015 183.025C343.001 183.002 343.048 183.029 342.77 183.045C338.45 182.387 336.967 184.044 337.937 188.102C337.876 188.212 337.625 188.206 337.292 188.3C336.306 189.255 335.651 190.118 334.884 191.21C334.488 191.618 334.204 191.796 333.557 191.998C329.671 193.006 325.763 193.644 326.873 199.143C326.477 199.583 326.197 199.786 325.585 199.934C319.4 198.358 318.986 198.617 317.795 204.584C317.507 206.027 317.239 207.474 316.968 208.95C316.973 208.98 316.914 208.963 316.654 209.079C315.915 209.763 315.436 210.331 314.96 210.931C314.964 210.964 314.899 210.958 314.641 211.078C313.913 211.774 313.443 212.35 312.849 213.222C311.906 214.191 311.088 214.865 309.953 215.318C307.103 215.408 304.569 215.718 302.035 216.028C302.035 216.028 302.001 215.999 302.071 215.626C304.419 211.156 306.697 207.058 308.974 202.96C308.974 202.96 309.001 203.001 309.382 202.991C314.957 202.353 317.736 199.324 318.974 192.942C319.044 192.615 319.211 192.348 320.013 191.965C321.348 190.827 322.144 189.867 322.94 188.906C322.94 188.906 322.971 188.97 323.287 188.904C325.42 186.94 327.236 185.042 329.051 183.144C329.266 182.858 329.48 182.573 330.274 182.116C331.921 180.687 332.988 179.428 334.056 178.169C334.885 177.21 335.714 176.251 337.129 175.099C340.503 174.547 343.111 174.023 342.054 170.152C342.254 169.858 342.454 169.565 343.154 169.04C344.121 168.243 344.588 167.679 345.055 167.114C345.055 167.114 345.042 167.051 345.404 166.965C352.048 164.075 357.942 160.897 359.052 153.105C359.052 153.105 359.05 153.041 359.371 153.117C360.824 153.695 361.955 154.197 362.437 154.411C364.087 151.105 365.575 148.123 367.062 145.142C367.062 145.142 367.064 145.062 367.356 144.94C368.119 144.257 368.589 143.695 369.06 143.133C369.06 143.133 369.058 143.061 369.415 142.957C372.199 140.285 374.625 137.716 377.052 135.147C377.256 134.861 377.46 134.575 378.206 134.288C383.404 134.171 383.233 129.782 385.055 127.158C385.26 126.864 385.465 126.571 386.168 126.137C387.156 125.346 387.645 124.696 388.135 124.046C388.617 123.459 389.099 122.871 389.842 122.159ZM373.683 147.781C373.458 147.815 373.233 147.849 373.008 147.883C373.227 147.918 373.446 147.954 373.683 147.781ZM346.85 171.037L347.15 170.991C347.15 170.991 346.858 170.913 346.85 171.037Z" fill="currentColor"/>
<path d="M203.996 316.005C206.707 314.993 209.419 313.981 212.406 313.28C208.61 317.736 204.59 321.933 200.459 326.018C187.718 338.616 174.934 351.171 162.156 363.324C162.765 360.602 163.384 358.3 164.002 355.999C164 356 163.997 356.004 164.317 355.882C167.524 352.67 170.412 349.58 173.3 346.489C172.992 346.137 172.685 345.785 172.378 345.432C170.733 346.364 169.134 347.391 167.433 348.204C165.3 349.222 163.084 350.065 160.904 350.984C168.882 342.81 176.827 334.604 184.85 326.474C189.626 321.633 194.524 316.91 199.679 311.998C199.933 313.274 199.475 314.826 199.907 316.067C200.696 318.333 202.136 319.343 203.9 316.278C204 316 203.996 316.005 203.996 316.005Z" fill="currentColor"/>
<path d="M164.004 355.997C163.384 358.3 162.765 360.602 162.071 363.539C161.634 364.445 161.271 364.718 160.652 365.101C159.913 365.752 159.429 366.292 158.835 367.102C158.007 367.987 157.288 368.603 156.17 369.22C153.179 370.149 150.588 371.076 147.931 371.853C147.658 371.519 147.451 371.336 147.244 371.153C147.235 371.28 147.172 371.48 147.228 371.523C147.467 371.707 147.742 371.843 147.899 372.327C146.921 376.409 140.87 377.702 142.818 383.146C141.768 384.276 140.846 385.118 139.654 385.893C138.579 386.854 137.773 387.883 136.852 389.198C136.1 389.985 135.463 390.486 134.493 391.045C125.656 392.087 125.375 392.388 126.806 399.13C126.087 399.925 125.486 400.441 124.555 400.962C122.324 401.093 120.424 401.219 117.812 401.392C118.497 403.364 119.001 404.816 119.366 406.565C118.114 407.894 117.001 408.926 115.571 409.849C110.163 408.147 109.967 408.369 110.087 415.751C109.294 416.67 108.596 417.315 107.642 417.783C106.262 416.411 105.137 415.216 104.012 414.02C104.012 414.02 103.999 414.002 104.065 413.642C103.852 411.739 103.574 410.196 103.297 408.652C103.297 408.652 103.503 408.229 104.089 408.074C107.122 406.696 110.025 405.957 111.935 404.161C118.38 398.103 124.65 391.831 130.602 385.291C132.649 383.042 133.564 379.764 134.995 376.955C135.076 376.652 135.232 376.394 135.994 375.99C137.346 374.813 138.167 373.827 138.988 372.84C139.458 372.274 139.927 371.708 140.942 370.936C141.989 370.124 142.491 369.518 142.993 368.912C143.462 368.35 143.932 367.787 144.931 366.982C145.961 366.135 146.462 365.529 146.963 364.924C147.022 364.586 147.195 364.323 148.024 363.962C149.366 362.832 150.166 361.876 150.967 360.92C151.474 360.368 151.981 359.816 153.067 359.031C155.428 356.83 157.21 354.863 158.991 352.896C159.456 352.331 159.922 351.767 160.645 351.093C163.084 350.065 165.3 349.222 167.433 348.204C169.134 347.391 170.733 346.364 172.378 345.432C172.685 345.785 172.992 346.137 173.3 346.489C170.412 349.58 167.524 352.67 164.251 355.73C163.658 355.516 163.45 355.333 163.242 355.15C163.233 355.278 163.168 355.48 163.224 355.523C163.464 355.706 163.74 355.843 164.004 355.997ZM153.145 362.965L152.855 363.01C152.855 363.01 153.137 363.085 153.145 362.965ZM153.073 366.878L152.897 367.111C152.897 367.111 153.149 366.968 153.073 366.878ZM140.852 375.036L141.147 374.99C141.147 374.99 140.86 374.914 140.852 375.036Z" fill="currentColor"/>
<path d="M248.667 241.804C247.596 242.573 246.221 243.53 244.697 244.05C231.043 248.705 217.305 253.121 203.707 257.935C192.152 262.025 180.655 266.315 169.317 270.966C162.141 273.91 155.324 277.723 148.303 281.054C146.075 282.111 143.706 282.871 141.014 283.81C150.212 278.984 159.44 273.156 169.451 269.433C195.549 259.726 221.991 250.942 248.667 241.804Z" fill="currentColor"/>
<path d="M740.915 304.678C736.426 301.756 730.98 299.246 727.361 295.129C723.044 290.218 719.462 285.067 713.704 281.27C708.565 277.882 704.868 272.257 700.682 267.489C696.726 262.984 692.962 258.31 689.054 253.36C700.306 264.145 711.64 275.257 722.92 286.423C728.917 292.36 734.82 298.391 740.915 304.678Z" fill="currentColor"/>
<path d="M667.02 224.634C658.073 223.576 651.847 217.572 645.417 211.685C642.104 208.652 637.897 206.612 634.452 203.7C632.681 202.202 631.729 199.752 630.341 197.778C629.555 196.659 628.423 194.6 627.809 194.726C621.443 196.034 623.277 192.124 623.937 188.608C629.099 193.173 634.271 198.017 639.352 202.953C647.732 211.094 655.094 220.526 667.02 224.634Z" fill="currentColor"/>
<path d="M134.674 377.059C133.564 379.764 132.649 383.042 130.603 385.291C124.65 391.831 118.38 398.103 111.935 404.161C110.025 405.957 107.122 406.696 104.292 407.955C114.057 397.714 124.205 387.438 134.674 377.059Z" fill="currentColor"/>
<path d="M79.5809 612.762C79.3093 614.403 78.9221 616.34 78.2469 618.172C75.0993 626.71 71.7247 635.168 68.7509 643.765C67.6655 646.903 67.1526 650.77 71.0136 652.477C74.6443 654.082 77.8608 652.362 80.0467 649.174C81.537 647.001 82.7473 644.636 84.3379 642.165C83.3614 644.859 82.4593 647.949 80.8224 650.583C78.271 654.688 73.5818 656.285 70.0503 654.651C65.6072 652.595 66.0156 648.459 67.1768 645.12C70.9349 634.315 75.2389 623.699 79.5809 612.762Z" fill="currentColor"/>
<path d="M80.6464 431.047C79.5242 437.776 73.9477 441.524 69.5652 446.146C67.2316 448.608 64.8966 451.115 62.2608 453.225C60.6753 454.494 58.5099 455.039 56.2148 455.943C63.992 447.702 72.1595 439.427 80.6464 431.047Z" fill="currentColor"/>
<path d="M64.7139 483.488C67.3289 485.244 70.0482 487.336 72.7742 489.419C75.2272 491.293 77.6766 493.173 80.1531 495.016C80.676 495.405 81.4954 495.501 81.864 495.976C86.1776 501.534 90.431 507.138 94.7692 513.08C86.5395 505.362 78.2288 497.307 69.9522 489.216C68.1785 487.482 66.5282 485.622 64.7139 483.488Z" fill="currentColor"/>
<path d="M203.343 622.282C206.202 624.383 209.36 626.595 212.106 629.234C218.99 635.851 225.709 642.64 232.438 649.416C233.442 650.427 234.14 651.743 235.012 653.252C226.841 645.625 218.624 637.678 210.44 629.696C208.062 627.377 205.78 624.959 203.343 622.282Z" fill="currentColor"/>
<path d="M99.3586 518.223C103.107 521.21 106.926 524.551 110.83 527.788C113.707 530.175 116.561 532.632 119.674 534.68C122.866 536.782 123.126 541.349 119.61 544.899C121.445 541.812 120.455 539.465 117.774 536.914C111.51 530.957 105.549 524.68 99.3586 518.223Z" fill="currentColor"/>
<path d="M875.447 236.278C875.335 235.694 875.407 234.86 875.667 234.089C878.267 226.359 877.251 224.555 868.891 225.181C862.468 225.662 856.152 227.565 849.444 228.943C851.726 227.561 854.203 225.295 857.011 224.757C862.027 223.797 867.254 223.468 872.37 223.627C879.21 223.841 880.618 226.559 877.66 232.58C877.075 233.77 876.368 234.9 875.447 236.278Z" fill="currentColor"/>
<path d="M308.664 203.085C306.697 207.058 304.419 211.155 302.055 215.612C299.201 217.001 296.434 218.032 293.317 219.021C298.096 213.722 303.225 208.466 308.664 203.085Z" fill="currentColor"/>
<path d="M169.351 317.747C171.154 316.353 173.159 314.511 175.522 313.566C184.557 309.951 193.707 306.624 203.242 303.22C192.353 308.07 181.035 312.891 169.351 317.747Z" fill="currentColor"/>
<path d="M299.849 718.514C306.42 722.166 314.319 724.897 316.078 734.329C310.751 729.374 305.361 724.104 299.849 718.514Z" fill="currentColor"/>
<path d="M356.995 772.996C357.798 773.829 358.507 775.247 359.421 775.394C363.388 776.032 363.68 778.943 364.013 782.279C358.992 777.66 353.94 772.726 348.766 767.466C352.612 767.04 355.885 767.947 356.781 772.805C357 773 356.995 772.996 356.995 772.996Z" fill="currentColor"/>
<path d="M760.101 329.976C759.997 324.538 755.961 321.661 752.274 318.189C752 318 752.006 318.001 752.006 318.001C751.996 317.567 751.986 317.132 751.986 316.371C757.914 321.823 763.833 327.601 769.879 333.687C768.166 332.789 766.327 331.584 763.965 330.076C762.329 329.841 761.215 329.909 760.101 329.976Z" fill="currentColor"/>
<path d="M155.762 574.61C158.922 574.979 162.276 575.191 163.416 579.563C163.784 580.974 166.246 582.307 167.994 582.79C171.278 583.698 171.539 585.242 169.75 588.08C165.021 583.894 160.46 579.408 155.762 574.61Z" fill="currentColor"/>
<path d="M136.329 336.911C143.104 329.513 152.039 324.981 161.79 321.114C153.667 326.329 145.172 331.594 136.329 336.911Z" fill="currentColor"/>
<path d="M358.74 153.212C357.942 160.897 352.048 164.075 345.437 166.965C349.547 162.474 353.987 157.897 358.74 153.212Z" fill="currentColor"/>
<path d="M279.656 232.147C278.601 233.268 277.412 235.29 275.796 235.724C267.842 237.862 259.775 239.578 251.43 241.379C258.261 239.276 265.431 237.309 272.546 235.16C274.879 234.455 277.07 233.278 279.656 232.147Z" fill="currentColor"/>
<path d="M845.575 232.859C840.856 239.728 835.827 246.732 830.504 253.876C835.229 247.009 840.247 240.002 845.575 232.859Z" fill="currentColor"/>
<path d="M259.47 678.191C267.272 680.553 270.799 687.775 275.745 693.934C270.401 689.015 264.992 683.755 259.47 678.191Z" fill="currentColor"/>
<path d="M134.374 555.883C135.657 555.921 138.024 555.09 138.832 555.871C142.429 559.349 145.581 563.288 148.993 567.384C145.756 564.612 142.478 561.451 139.054 558.456C137.793 557.353 136.188 556.644 134.374 555.883Z" fill="currentColor"/>
<path d="M318.663 193.067C317.736 199.324 314.957 202.353 309.362 202.978C312.091 199.713 315.221 196.452 318.663 193.067Z" fill="currentColor"/>
<path d="M243.329 662.234C247.768 666.29 252.318 670.653 256.988 675.324C252.552 671.268 247.996 666.904 243.329 662.234Z" fill="currentColor"/>
<path d="M174.41 593.216C178.766 597.145 183.21 601.386 187.697 605.987C183.326 602.074 178.912 597.801 174.41 593.216Z" fill="currentColor"/>
<path d="M204.003 309.996C203.209 310.288 202.415 310.58 201.311 310.937C203.083 308.282 205.165 305.561 207.174 302.427C208.199 302.158 209.298 302.302 210.397 302.446C209.787 304.046 209.507 305.922 208.469 307.166C207.523 308.301 205.756 308.751 204.175 309.752C204 310 204.003 309.996 204.003 309.996Z" fill="currentColor"/>
<path d="M339.858 758.504C339.903 758.2 340.072 758.243 340.233 758.224C346.044 757.55 348.551 760.189 348.005 766.271C345.353 764.015 342.666 761.418 339.858 758.504Z" fill="currentColor"/>
<path d="M798.891 362.671C791.931 361.818 789.233 356.501 793.388 351.124C791.624 354.16 792.424 356.659 795.353 358.861C796.638 359.827 797.63 361.183 798.891 362.671Z" fill="currentColor"/>
<path d="M686.871 250.682C685.581 250.772 684.141 250.558 682.375 250.192C681.088 245.777 680.126 241.514 679.22 236.769C680.151 241.833 681.819 246.961 686.871 250.682Z" fill="currentColor"/>
<path d="M364.77 783.464C371.646 782.401 371.919 788.847 374.81 792.93C371.554 790.119 368.222 786.954 364.77 783.464Z" fill="currentColor"/>
<path d="M746.28 314.893C744.987 312.581 743.996 310.177 743.003 307.371C745.567 309.443 748.134 311.918 750.829 314.697C749.499 314.935 748.04 314.868 746.28 314.893Z" fill="currentColor"/>
<path d="M827.398 302.101C830.771 296.927 834.426 291.57 838.379 286.094C835.011 291.289 831.345 296.604 827.398 302.101Z" fill="currentColor"/>
<path d="M288.657 223.066C289.778 229.254 284.707 230.036 280.327 231.89C282.766 229.05 285.554 226.114 288.657 223.066Z" fill="currentColor"/>
<path d="M288.807 707.45C293.945 708.948 297.385 712.659 299.739 717.928C296.173 714.778 292.539 711.28 288.807 707.45Z" fill="currentColor"/>
<path d="M808.59 286.892C805.817 291.719 802.753 296.72 799.393 301.866C802.164 297.029 805.232 292.047 808.59 286.892Z" fill="currentColor"/>
<path d="M103.465 605.407C106.148 600.504 109.095 595.363 112.338 590.098C109.665 595.038 106.697 600.104 103.465 605.407Z" fill="currentColor"/>
<path d="M131.618 289.001C127.458 292.22 122.944 295.488 118.075 298.821C122.234 295.608 126.749 292.329 131.618 289.001Z" fill="currentColor"/>
<path d="M102.991 408.739C103.574 410.196 103.852 411.739 104.058 413.634C101.895 414.313 99.8046 414.642 97.3103 414.966C98.8323 412.916 100.758 410.87 102.991 408.739Z" fill="currentColor"/>
<path d="M801.297 339.878C804.011 335.447 806.998 330.83 810.279 326.092C807.572 330.544 804.57 335.118 801.297 339.878Z" fill="currentColor"/>
<path d="M101.599 314.916C100.454 319.256 98.9973 323.728 97.4047 328.553C95.5615 323.403 97.1958 318.869 101.599 314.916Z" fill="currentColor"/>
<path d="M99.521 339.33C101.703 342.982 103.87 347.003 106.08 351.377C103.917 347.719 101.712 343.71 99.521 339.33Z" fill="currentColor"/>
<path d="M366.755 145.257C365.575 148.123 364.087 151.105 362.437 154.411C361.955 154.197 360.824 153.695 359.402 153.125C361.558 150.495 364.003 147.933 366.755 145.257Z" fill="currentColor"/>
<path d="M193.293 612.229C196.353 614.875 199.512 617.833 202.756 621.137C199.692 618.502 196.543 615.521 193.293 612.229Z" fill="currentColor"/>
<path d="M47.8259 463.695C50.0089 466.453 51.9406 469.299 53.982 472.46C52.1269 471.033 49.9877 469.442 48.2812 467.476C47.5707 466.657 47.7824 465.038 47.8259 463.695Z" fill="currentColor"/>
<path d="M104.464 568.506C102.383 572.432 100.021 576.571 97.3604 580.857C99.4349 576.909 101.809 572.815 104.464 568.506Z" fill="currentColor"/>
<path d="M116.826 360.437C118.016 360.145 119.383 360.145 120.776 360.145C120.6 358.284 120.461 356.807 120.501 355.189C121.504 357.243 122.328 359.437 123.152 361.63C122.785 361.991 122.417 362.351 122.05 362.712C120.368 362.051 118.685 361.39 116.826 360.437Z" fill="currentColor"/>
<path d="M828.392 256.435C826.469 259.74 824.269 263.261 821.784 266.912C823.705 263.578 825.91 260.115 828.392 256.435Z" fill="currentColor"/>
<path d="M94.6428 417.008C95.2047 420.665 93.9531 423.125 89.2854 422.978C90.6941 421.026 92.5091 419.068 94.6428 417.008Z" fill="currentColor"/>
<path d="M126.371 344.999C129.124 342.459 132.198 339.795 135.613 337.053C132.866 339.609 129.779 342.241 126.371 344.999Z" fill="currentColor"/>
<path d="M384.758 127.288C383.233 129.782 383.404 134.171 378.456 134.189C380.264 131.868 382.362 129.643 384.758 127.288Z" fill="currentColor"/>
<path d="M376.748 135.268C374.625 137.716 372.199 140.285 369.451 142.956C371.568 140.502 374.006 137.946 376.748 135.268Z" fill="currentColor"/>
<path d="M777.541 337.021C775.258 340.742 773.783 340.328 770.097 334.324C772.631 334.527 773.287 339.436 777.541 337.021Z" fill="currentColor"/>
<path d="M316.461 735.169C318.797 737.105 321.238 739.349 323.745 741.934C321.396 740.009 318.981 737.742 316.461 735.169Z" fill="currentColor"/>
<path d="M341.751 170.254C343.111 174.023 340.503 174.547 337.416 174.956C338.562 173.457 340.004 171.907 341.751 170.254Z" fill="currentColor"/>
<path d="M114.402 552.447C113.053 555.07 111.412 557.892 109.481 560.863C110.83 558.224 112.471 555.435 114.402 552.447Z" fill="currentColor"/>
<path d="M54.6718 457.012C53.1881 458.896 51.3866 460.884 49.2224 462.906C50.6911 461 52.5225 459.057 54.6718 457.012Z" fill="currentColor"/>
<path d="M328.749 183.26C327.236 185.042 325.42 186.94 323.256 188.887C324.754 187.083 326.6 185.229 328.749 183.26Z" fill="currentColor"/>
<path d="M158.675 353.006C157.21 354.863 155.428 356.83 153.322 358.898C154.784 357.039 156.571 355.078 158.675 353.006Z" fill="currentColor"/>
<path d="M820.633 267.972C819.578 270.125 818.242 272.455 816.598 274.904C817.644 272.732 818.997 270.441 820.633 267.972Z" fill="currentColor"/>
<path d="M54.4199 473.171C56.1602 474.615 58.0433 476.341 59.9772 478.397C58.2063 476.969 56.3845 475.211 54.4199 473.171Z" fill="currentColor"/>
<path d="M169.752 588.689C172.201 587.525 174.353 587.223 173.241 591.461C172.049 590.822 170.967 589.897 169.752 588.689Z" fill="currentColor"/>
<path d="M90.3761 592.417C89.4175 594.682 88.1956 597.18 86.7065 599.853C87.6639 597.569 88.8883 595.11 90.3761 592.417Z" fill="currentColor"/>
<path d="M122.39 574.105C123.455 571.966 124.79 569.628 126.407 567.138C125.346 569.293 124.002 571.599 122.39 574.105Z" fill="currentColor"/>
<path d="M839.399 285.119C840.445 283.265 841.772 281.241 843.4 279.095C842.361 280.966 841.021 282.957 839.399 285.119Z" fill="currentColor"/>
<path d="M187.775 606.573C189.395 607.887 191.135 609.511 192.987 611.454C191.364 610.143 189.63 608.514 187.775 606.573Z" fill="currentColor"/>
<path d="M375.521 794.235C378.643 793.04 379.336 795.145 379.786 797.92C378.418 797.019 377.018 795.775 375.521 794.235Z" fill="currentColor"/>
<path d="M817.468 316.354C818.497 314.445 819.802 312.336 821.411 310.103C820.391 312.037 819.068 314.095 817.468 316.354Z" fill="currentColor"/>
<path d="M853.609 265.573C854.563 263.909 855.798 262.049 857.356 260.081C856.415 261.775 855.152 263.575 853.609 265.573Z" fill="currentColor"/>
<path d="M333.756 178.262C332.988 179.428 331.921 180.687 330.523 182.007C331.281 180.83 332.369 179.593 333.756 178.262Z" fill="currentColor"/>
<path d="M97.4985 331.318C98.1383 332.782 98.7275 334.6 99.1887 336.696C98.5231 335.207 97.9855 333.439 97.4985 331.318Z" fill="currentColor"/>
<path d="M792.506 312.588C791.803 314.164 790.818 315.934 789.542 317.861C790.241 316.272 791.233 314.527 792.506 312.588Z" fill="currentColor"/>
<path d="M673.287 228.545C671.738 227.828 670.015 226.825 668.138 225.531C669.693 226.247 671.402 227.253 673.287 228.545Z" fill="currentColor"/>
<path d="M283.847 702.482C285.138 703.425 286.535 704.671 287.99 706.241C286.682 705.306 285.317 704.045 283.847 702.482Z" fill="currentColor"/>
<path d="M292.68 219.086C291.862 220.251 290.746 221.535 289.292 222.897C290.097 221.718 291.239 220.461 292.68 219.086Z" fill="currentColor"/>
<path d="M813.631 278.94C812.941 280.437 811.977 282.103 810.723 283.903C811.407 282.393 812.382 280.75 813.631 278.94Z" fill="currentColor"/>
<path d="M82.5992 606.859C82.1274 608.329 81.4018 610.025 80.3486 611.863C80.7958 610.364 81.5706 608.724 82.5992 606.859Z" fill="currentColor"/>
<path d="M118.615 545.894C117.94 547.398 116.996 549.079 115.766 550.898C116.435 549.382 117.389 547.726 118.615 545.894Z" fill="currentColor"/>
<path d="M107.589 307.865C106.791 309.08 105.695 310.437 104.271 311.895C105.059 310.666 106.176 309.337 107.589 307.865Z" fill="currentColor"/>
<path d="M106.356 352.192C107.373 352.837 108.468 353.787 109.632 355.055C108.612 354.414 107.523 353.456 106.356 352.192Z" fill="currentColor"/>
<path d="M119.341 578.999C119.756 577.854 120.445 576.55 121.434 575.114C121.028 576.267 120.321 577.554 119.341 578.999Z" fill="currentColor"/>
<path d="M844.412 278.148C844.947 277.005 845.765 275.691 846.91 274.262C846.389 275.424 845.542 276.701 844.412 278.148Z" fill="currentColor"/>
<path d="M858.416 259.152C858.932 257.996 859.739 256.68 860.868 255.246C860.362 256.417 859.534 257.704 858.416 259.152Z" fill="currentColor"/>
<path d="M135.716 286.379C134.878 287.17 133.73 288.014 132.264 288.912C133.099 288.122 134.253 287.277 135.716 286.379Z" fill="currentColor"/>
<path d="M131.381 560.112C131.883 558.977 132.642 557.639 133.706 556.153C133.22 557.307 132.429 558.608 131.381 560.112Z" fill="currentColor"/>
<path d="M114.395 587.122C114.814 585.965 115.508 584.635 116.485 583.147C116.069 584.309 115.369 585.629 114.395 587.122Z" fill="currentColor"/>
<path d="M783.627 326.915C783.246 328.056 782.602 329.372 781.692 330.857C782.072 329.715 782.717 328.403 783.627 326.915Z" fill="currentColor"/>
<path d="M780.642 331.954C780.245 333.083 779.581 334.386 778.649 335.857C779.047 334.726 779.712 333.427 780.642 331.954Z" fill="currentColor"/>
<path d="M379.845 798.491C380.729 799.007 381.72 799.833 382.79 800.995C381.897 800.488 380.925 799.645 379.845 798.491Z" fill="currentColor"/>
<path d="M322.645 189.014C322.144 189.867 321.348 190.827 320.237 191.878C320.731 191.019 321.54 190.07 322.645 189.014Z" fill="currentColor"/>
<path d="M336.789 755.438C337.691 755.945 338.681 756.769 339.745 757.929C338.838 757.429 337.858 756.592 336.789 755.438Z" fill="currentColor"/>
<path d="M100.547 610.544C100.842 609.586 101.393 608.431 102.232 607.12C101.948 608.091 101.376 609.219 100.547 610.544Z" fill="currentColor"/>
<path d="M384.821 803.425C385.714 803.94 386.691 804.772 387.739 805.94C386.841 805.432 385.873 804.587 384.821 803.425Z" fill="currentColor"/>
<path d="M387.84 806.5C388.722 807.013 389.718 807.834 390.792 808.991C389.899 808.487 388.927 807.647 387.84 806.5Z" fill="currentColor"/>
<path d="M138.69 372.967C138.167 373.827 137.346 374.813 136.202 375.897C136.717 375.028 137.555 374.061 138.69 372.967Z" fill="currentColor"/>
<path d="M275.834 694.5C276.725 694.985 277.725 695.78 278.815 696.901C277.918 696.422 276.93 695.616 275.834 694.5Z" fill="currentColor"/>
<path d="M280.792 699.437C281.692 699.944 282.684 700.766 283.75 701.925C282.845 701.425 281.865 700.589 280.792 699.437Z" fill="currentColor"/>
<path d="M150.665 361.014C150.166 361.876 149.366 362.832 148.251 363.88C148.746 363.019 149.554 362.064 150.665 361.014Z" fill="currentColor"/>
<path d="M152.664 571.484C153.572 572.005 154.585 572.841 155.654 574.029C154.73 573.52 153.748 572.66 152.664 571.484Z" fill="currentColor"/>
<path d="M323.834 742.501C324.722 743.003 325.719 743.816 326.799 744.961C325.903 744.466 324.923 743.638 323.834 742.501Z" fill="currentColor"/>
<path d="M328.814 747.428C329.714 747.934 330.7 748.756 331.763 749.913C330.859 749.413 329.88 748.578 328.814 747.428Z" fill="currentColor"/>
<path d="M115.716 300.263C115.186 301.054 114.357 301.932 113.226 302.901C113.754 302.112 114.586 301.231 115.716 300.263Z" fill="currentColor"/>
<path d="M331.865 750.473C332.743 750.982 333.732 751.8 334.804 752.95C333.916 752.448 332.945 751.615 331.865 750.473Z" fill="currentColor"/>
<path d="M96.5194 581.646C96.3186 582.489 95.84 583.547 95.053 584.793C95.2436 583.941 95.7426 582.901 96.5194 581.646Z" fill="currentColor"/>
<path d="M106.641 564.971C106.42 565.74 105.934 566.701 105.154 567.827C105.365 567.049 105.871 566.106 106.641 564.971Z" fill="currentColor"/>
<path d="M163.291 320.68C163.842 320.168 164.703 319.643 165.883 319.103C165.334 319.614 164.468 320.14 163.291 320.68Z" fill="currentColor"/>
<path d="M847.457 274.062C847.689 273.284 848.201 272.343 849.024 271.268C848.802 272.056 848.27 272.977 847.457 274.062Z" fill="currentColor"/>
<path d="M387.858 124.144C387.645 124.696 387.156 125.346 386.419 126.029C386.641 125.456 387.111 124.849 387.858 124.144Z" fill="currentColor"/>
<path d="M344.79 167.216C344.588 167.679 344.121 168.243 343.401 168.929C343.607 168.473 344.066 167.896 344.79 167.216Z" fill="currentColor"/>
<path d="M368.789 143.224C368.589 143.695 368.119 144.257 367.396 144.941C367.602 144.481 368.059 143.898 368.789 143.224Z" fill="currentColor"/>
<path d="M236.479 655.238C236.911 655.43 237.393 655.882 237.97 656.569C237.553 656.369 237.041 655.933 236.479 655.238Z" fill="currentColor"/>
<path d="M86.585 637.597C86.6329 637.016 86.9163 636.214 87.4422 635.196C87.3966 635.779 87.1085 636.577 86.585 637.597Z" fill="currentColor"/>
<path d="M88.4739 633.474C88.55 632.91 88.8734 632.147 89.4381 631.182C89.36 631.745 89.0406 632.509 88.4739 633.474Z" fill="currentColor"/>
<path d="M97.3979 616.345C97.4891 615.818 97.808 615.092 98.3588 614.172C98.2691 614.701 97.9474 615.423 97.3979 616.345Z" fill="currentColor"/>
<path d="M92.4836 625.464C92.5662 624.894 92.9092 624.138 93.5 623.186C93.4132 623.753 93.0787 624.515 92.4836 625.464Z" fill="currentColor"/>
<path d="M850.342 270.068C850.482 269.566 850.877 268.925 851.521 268.135C851.378 268.633 850.987 269.281 850.342 270.068Z" fill="currentColor"/>
<path d="M109.779 355.578C110.304 355.754 110.972 356.203 111.773 356.933C111.245 356.76 110.584 356.306 109.779 355.578Z" fill="currentColor"/>
<path d="M146.676 365.029C146.462 365.529 145.961 366.135 145.185 366.867C145.403 366.374 145.896 365.754 146.676 365.029Z" fill="currentColor"/>
<path d="M142.701 369C142.491 369.518 141.989 370.124 141.21 370.848C141.425 370.339 141.917 369.713 142.701 369Z" fill="currentColor"/>
<path d="M117.408 582.281C117.47 581.746 117.78 581.05 118.311 580.165C118.24 580.691 117.947 581.405 117.408 582.281Z" fill="currentColor"/>
<path d="M788.63 318.834C788.537 319.348 788.202 320.018 787.636 320.856C787.733 320.346 788.061 319.668 788.63 318.834Z" fill="currentColor"/>
<path d="M110.597 304.861C110.376 305.396 109.855 306.031 109.04 306.782C109.263 306.252 109.78 305.606 110.597 304.861Z" fill="currentColor"/>
<path d="M823.547 307.532C823.684 306.95 824.098 306.178 824.795 305.225C824.661 305.81 824.243 306.577 823.547 307.532Z" fill="currentColor"/>
<path d="M796.622 305.785C796.535 306.299 796.215 306.984 795.668 307.849C795.758 307.338 796.074 306.648 796.622 305.785Z" fill="currentColor"/>
<path d="M798.573 302.647C798.467 303.192 798.11 303.919 797.506 304.832C797.613 304.289 797.967 303.559 798.573 302.647Z" fill="currentColor"/>
<path d="M794.439 309.45C794.31 310.038 793.905 310.825 793.219 311.805C793.347 311.214 793.755 310.432 794.439 309.45Z" fill="currentColor"/>
<path d="M815.391 319.13C815.535 318.604 815.951 317.95 816.625 317.143C816.475 317.661 816.069 318.331 815.391 319.13Z" fill="currentColor"/>
<path d="M786.712 322.014C786.595 322.486 786.251 323.111 785.674 323.881C785.789 323.407 786.137 322.787 786.712 322.014Z" fill="currentColor"/>
<path d="M811.353 325.092C811.48 324.571 811.865 323.909 812.493 323.083C812.361 323.597 811.985 324.273 811.353 325.092Z" fill="currentColor"/>
<path d="M796.403 347.213C796.526 346.674 796.91 345.977 797.545 345.108C797.419 345.642 797.041 346.348 796.403 347.213Z" fill="currentColor"/>
<path d="M123.44 348.346C123.656 347.806 124.146 347.091 124.939 346.235C124.733 346.786 124.224 347.478 123.44 348.346Z" fill="currentColor"/>
<path d="M794.369 350.14C794.505 349.631 794.892 348.968 795.529 348.146C795.392 348.654 795.007 349.32 794.369 350.14Z" fill="currentColor"/>
<path d="M121.043 352.756C120.97 352.363 121.081 351.768 121.365 351.071C121.434 351.496 121.33 352.025 121.043 352.756Z" fill="currentColor"/>
<path d="M871.573 241.55C871.745 240.96 872.218 240.202 872.997 239.285C872.826 239.877 872.35 240.629 871.573 241.55Z" fill="currentColor"/>
<path d="M825.303 304.968C825.418 304.474 825.786 303.867 826.385 303.117C826.263 303.601 825.91 304.228 825.303 304.968Z" fill="currentColor"/>
<path d="M865.301 249.97C865.401 249.493 865.74 248.885 866.295 248.122C866.188 248.591 865.863 249.215 865.301 249.97Z" fill="currentColor"/>
<path d="M129.372 563.146C129.479 562.623 129.843 561.963 130.448 561.141C130.335 561.656 129.982 562.332 129.372 563.146Z" fill="currentColor"/>
<path d="M108.61 561.682C108.503 562.212 108.161 562.936 107.571 563.839C107.674 563.305 108.024 562.59 108.61 561.682Z" fill="currentColor"/>
<path d="M127.387 566.168C127.51 565.649 127.89 564.979 128.518 564.148C128.392 564.664 128.018 565.34 127.387 566.168Z" fill="currentColor"/>
<path d="M678.609 234.725C678.189 234.389 677.728 233.753 677.217 232.818C677.634 233.153 678.102 233.788 678.609 234.725Z" fill="currentColor"/>
<path d="M848.799 229.22C848.622 229.679 848.192 230.252 847.52 230.953C847.701 230.5 848.123 229.917 848.799 229.22Z" fill="currentColor"/>
<path d="M86.6995 424.973C86.4819 425.491 85.9715 426.104 85.1802 426.838C85.4017 426.329 85.9042 425.699 86.6995 424.973Z" fill="currentColor"/>
<path d="M82.6937 429.051C82.4759 429.533 81.9825 430.13 81.2161 430.847C81.4347 430.367 81.9264 429.766 82.6937 429.051Z" fill="currentColor"/>
<path d="M861.395 255.064C861.519 254.55 861.902 253.918 862.528 253.139C862.399 253.644 862.027 254.294 861.395 255.064Z" fill="currentColor"/>
<path d="M688.887 252.73C688.421 252.5 687.852 251.996 687.148 251.235C687.604 251.471 688.194 251.963 688.887 252.73Z" fill="currentColor"/>
<path d="M863.453 252.316C863.626 251.771 864.078 251.069 864.813 250.209C864.641 250.754 864.186 251.456 863.453 252.316Z" fill="currentColor"/>





<path d="M265.078 670.359C273.447 678.226 282.014 686.315 290.356 694.63C319.797 723.977 349.162 753.4 378.549 782.802C379.015 783.268 379.383 783.832 379.916 784.663C374.971 780.521 369.66 776.314 364.887 771.567C344.009 750.804 323.293 729.878 302.506 709.023C294.877 701.369 287.698 693.16 279.401 686.311C273.792 681.682 269.848 675.942 265.078 670.359Z" fill="currentColor"/>
<path d="M107.642 417.783C102.122 423.855 96.3472 429.75 90.2601 435.758C88.7218 433.778 87.4954 431.686 86.2781 429.609C88.9054 429.078 90.3763 428.781 91.9237 428.242C92.0001 428 91.9966 428.005 91.9966 428.005C95.7416 423.396 103.205 422.057 103.88 414.327C105.137 415.216 106.262 416.411 107.642 417.783Z" fill="currentColor"/>
<path d="M350.644 643.829C350.626 640.411 347.921 640.797 345.671 640.568C328.7 638.84 312.411 634.487 296.46 627.575C303.663 629.422 311.054 631.834 318.601 633.575C327.766 635.69 337.067 637.21 346.297 639.051C348.768 639.543 352.599 638.869 350.644 643.829Z" fill="currentColor"/>
<path d="M389.473 218.438C406.135 218.139 423.173 217.983 440.581 217.999C434.176 218.435 427.403 218.818 420.626 218.934C412.351 219.076 404.071 219.022 395.794 218.989C393.812 218.981 391.831 218.723 389.473 218.438Z" fill="currentColor"/>
<path d="M85.9149 439.234C81.3231 444.49 76.4212 449.537 71.2045 454.679C71.0928 453.265 70.8454 451.47 71.5872 450.302C73.5145 447.27 75.887 444.521 78.062 441.644C79.9991 439.081 82.1847 437.29 85.9149 439.234Z" fill="currentColor"/>
<path d="M445.222 218.715C460.432 219.053 475.125 222.227 488.29 231.565C487.551 231.603 486.439 231.608 485.644 231.108C474.059 223.81 461.041 221.41 447.758 219.857C446.973 219.765 446.236 219.268 445.222 218.715Z" fill="currentColor"/>
<path d="M62.4852 463.098C63.3554 464.969 63.3533 467.493 64.6108 468.847C70.8154 475.525 77.3536 481.894 83.8829 488.688C82.1721 487.795 80.3525 486.586 78.2664 485.188C77.9999 485 78.0047 485.004 78.0047 485.004C74.3046 481.148 70.6529 477.243 66.8771 473.463C65.6308 472.215 64.0642 471.287 62.322 470.107C61.9999 470 62.0022 470.002 62.0022 470.002C61.6557 467.726 58.6532 465.376 62.4852 463.098Z" fill="currentColor"/>
<path d="M161.084 566.35C168.923 573.803 176.856 581.583 184.898 589.679C182.234 587.968 179.119 586.274 176.756 583.847C171.368 578.314 166.348 572.422 161.084 566.35Z" fill="currentColor"/>
<path d="M220.084 625.352C226.92 631.807 233.851 638.587 240.882 645.687C237.726 643.504 234.478 640.992 231.212 638.504C229.49 637.193 227.736 635.923 226.107 634.716C224.169 631.761 222.175 628.719 220.084 625.352Z" fill="currentColor"/>
<path d="M630.96 208.7C626.355 204.62 621.753 200.136 617.057 195.328C622.693 196.474 630.421 203.811 630.96 208.7Z" fill="currentColor"/>
<path d="M96.9768 502.342C102.26 507.125 107.52 512.246 112.881 517.685C107.642 514.186 102.238 510.453 97.0497 506.442C96.4229 505.957 96.9579 503.969 96.9768 502.342Z" fill="currentColor"/>
<path d="M407.755 262.207C399.652 262.569 391.272 262.697 382.432 262.721C383.468 262.089 384.973 261.084 386.459 261.112C393.469 261.244 400.473 261.659 407.755 262.207Z" fill="currentColor"/>
<path d="M350.431 222.38C357.77 221.273 365.465 220.309 373.596 219.437C366.284 220.527 358.535 221.525 350.431 222.38Z" fill="currentColor"/>
<path d="M309.953 215.318C308.027 217.904 305.785 220.269 303.232 222.738C302.624 220.831 302.328 218.821 302.033 216.419C304.569 215.718 307.103 215.408 309.953 215.318Z" fill="currentColor"/>
<path d="M241.087 646.346C246.266 651.126 251.538 656.234 256.934 661.652C251.765 656.866 246.473 651.77 241.087 646.346Z" fill="currentColor"/>
<path d="M254.635 286.785C247.191 289.476 239.431 292.077 231.317 294.785C232.225 293.9 233.344 292.428 234.775 292.001C241.241 290.071 247.796 288.437 254.635 286.785Z" fill="currentColor"/>
<path d="M115.99 521.406C118.588 523.418 121.1 525.92 123.838 528.144C125.079 529.153 126.768 529.609 128.626 530.155C125.013 535.332 123.29 529.33 120.286 528.157C120 528 120.005 528.004 120.005 528.004C118.669 525.93 117.333 523.857 115.99 521.406Z" fill="currentColor"/>
<path d="M280.65 279.764C273.214 282.038 265.464 284.189 257.336 286.31C264.751 284.067 272.544 281.854 280.65 279.764Z" fill="currentColor"/>
<path d="M758.993 336.629C756.408 334.56 753.817 332.096 751.104 329.322C756.996 328.593 758.157 329.641 758.993 336.629Z" fill="currentColor"/>
<path d="M469.856 274.325C463.891 272.481 457.756 270.361 451.34 268.021C457.268 269.885 463.477 271.967 469.856 274.325Z" fill="currentColor"/>
<path d="M326.46 225.467C332.146 224.456 338.182 223.572 344.631 222.761C338.965 223.753 332.888 224.674 326.46 225.467Z" fill="currentColor"/>
<path d="M443.789 266.053C438.622 265.527 433.203 264.789 427.438 263.869C432.573 264.405 438.056 265.123 443.789 266.053Z" fill="currentColor"/>
<path d="M301.527 223.915C301.05 225.687 300.254 227.43 299.74 229.402C298.852 229.891 297.681 230.15 296.511 230.409C296.449 229.379 296.277 228.341 296.354 227.321C296.449 226.044 296.749 224.783 297.006 223.242C298.426 223.46 299.817 223.673 301.527 223.915Z" fill="currentColor"/>
<path d="M185.064 590.334C188.586 593.457 192.166 596.921 195.859 600.7C192.355 597.568 188.74 594.122 185.064 590.334Z" fill="currentColor"/>
<path d="M315.529 271.496C310.496 272.946 305.129 274.282 299.365 275.576C304.378 274.15 309.786 272.765 315.529 271.496Z" fill="currentColor"/>
<path d="M147.503 552.832C149.452 554.227 151.138 555.798 152.923 557.678C147.424 558.355 145.792 556.95 147.503 552.832Z" fill="currentColor"/>
<path d="M769.475 350.823C767.551 348.229 765.882 345.444 764.075 342.349C770.083 344.082 771.262 345.829 769.475 350.823Z" fill="currentColor"/>
<path d="M364.564 263.617C361.206 264.306 357.49 264.852 353.366 265.327C356.708 264.661 360.457 264.067 364.564 263.617Z" fill="currentColor"/>
<path d="M212.09 617.34C214.586 619.466 217.179 621.921 219.872 624.694C217.377 622.564 214.781 620.116 212.09 617.34Z" fill="currentColor"/>
<path d="M227.752 585.915C224.903 583.755 221.982 581.256 218.922 578.452C221.749 580.624 224.715 583.1 227.752 585.915Z" fill="currentColor"/>
<path d="M204.102 609.315C206.599 611.449 209.187 613.911 211.882 616.69C209.39 614.552 206.791 612.098 204.102 609.315Z" fill="currentColor"/>
<path d="M153.103 558.306C155.589 560.447 158.163 562.918 160.858 565.7C158.382 563.552 155.787 561.094 153.103 558.306Z" fill="currentColor"/>
<path d="M196.085 601.356C198.586 603.471 201.185 605.915 203.899 608.674C201.403 606.554 198.794 604.12 196.085 601.356Z" fill="currentColor"/>
<path d="M222.574 302.999C220.943 305.116 218.925 307.238 216.599 309.521C216.211 305.649 217.899 303.179 222.574 302.999Z" fill="currentColor"/>
<path d="M617.336 216.907C620.383 215.741 623.802 214.497 627.625 213.341C624.589 214.562 621.148 215.695 617.336 216.907Z" fill="currentColor"/>

<path d="M210.816 569.941C208.682 568.06 206.482 565.833 204.187 563.286C206.311 565.176 208.531 567.385 210.816 569.941Z" fill="currentColor"/>
<path d="M376.586 262.638C374.225 263.091 371.518 263.396 368.389 263.611C370.725 263.177 373.483 262.833 376.586 262.638Z" fill="currentColor"/>
<path d="M331.575 268.556C329.178 269.271 326.455 269.862 323.348 270.386C325.726 269.69 328.488 269.061 331.575 268.556Z" fill="currentColor"/>
<path d="M342.588 266.597C340.185 267.28 337.457 267.835 334.345 268.332C336.728 267.673 339.495 267.071 342.588 266.597Z" fill="currentColor"/>
<path d="M68.2519 457.086C67.6542 458.252 66.7632 459.27 65.5511 460.411C65.0843 460.251 64.881 459.982 64.8028 459.681C64.4483 458.318 64.1292 456.945 63.7974 455.576C65.1844 456.03 66.5715 456.484 68.2519 457.086Z" fill="currentColor"/>
<path d="M790.924 368.631C789.239 367.597 787.458 366.247 785.296 364.789C788.874 362.656 789.268 366.435 790.924 368.631Z" fill="currentColor"/>
<path d="M278.859 619.371C276.322 618.34 273.622 617.03 270.7 615.449C273.218 616.483 275.957 617.787 278.859 619.371Z" fill="currentColor"/>
<path d="M377.419 219.398C379.461 218.967 381.839 218.676 384.626 218.479C382.608 218.894 380.182 219.216 377.419 219.398Z" fill="currentColor"/>
<path d="M137.324 517.864C138.443 515.679 139.866 513.353 141.58 510.855C140.457 513.029 139.042 515.375 137.324 517.864Z" fill="currentColor"/>

<path d="M196.972 554.619C195.435 553.18 193.855 551.393 192.189 549.288C193.712 550.737 195.32 552.504 196.972 554.619Z" fill="currentColor"/>
<path d="M141.265 545.159C142.553 546.436 143.673 547.892 144.918 549.664C143.728 548.432 142.412 546.885 141.265 545.159Z" fill="currentColor"/>
<path d="M84.0881 489.332C85.5944 490.466 87.1928 491.925 88.8852 493.697C87.3796 492.559 85.78 491.108 84.0881 489.332Z" fill="currentColor"/>
<path d="M92.0896 497.335C93.5974 498.466 95.1974 499.921 96.8963 501.688C95.3906 500.553 93.7863 499.106 92.0896 497.335Z" fill="currentColor"/>
<path d="M748.894 326.718C747.471 325.705 745.992 324.33 744.357 322.647C745.746 323.678 747.292 325.018 748.894 326.718Z" fill="currentColor"/>
<path d="M260.101 665.306C261.604 666.449 263.196 667.918 264.878 669.701C263.376 668.555 261.783 667.093 260.101 665.306Z" fill="currentColor"/>
<path d="M777.566 375.116C776.841 376.723 775.797 378.454 774.467 380.375C775.203 378.79 776.224 377.016 777.566 375.116Z" fill="currentColor"/>
<path d="M296.681 275.755C295.196 276.423 293.432 276.968 291.316 277.461C292.777 276.816 294.59 276.224 296.681 275.755Z" fill="currentColor"/>
<path d="M288.669 277.722C287.188 278.39 285.427 278.94 283.314 279.448C284.771 278.805 286.58 278.205 288.669 277.722Z" fill="currentColor"/>
<path d="M422.811 263.235C421.268 263.35 419.502 263.242 417.389 262.991C418.89 262.902 420.739 262.958 422.811 263.235Z" fill="currentColor"/>
<path d="M768.145 337.505C767.842 338.072 767.481 338.42 767.12 338.768C766.96 338.044 766.8 337.321 766.64 336.598C767.123 336.828 767.605 337.057 768.145 337.505Z" fill="currentColor"/>
<path d="M291.87 625.397C290.374 625.026 288.727 624.347 286.884 623.397C288.366 623.781 290.043 624.436 291.87 625.397Z" fill="currentColor"/>
<path d="M631.147 213.633C631.616 212.847 632.259 212.268 632.944 211.345C633.376 211.867 633.767 212.733 634.158 213.598C633.213 213.679 632.267 213.76 631.147 213.633Z" fill="currentColor"/>
<path d="M179.802 532.107C178.677 530.859 177.514 529.246 176.275 527.309C177.388 528.571 178.576 530.156 179.802 532.107Z" fill="currentColor"/>
<path d="M200.804 558.861C199.653 557.998 198.436 556.802 197.126 555.296C198.267 556.166 199.502 557.347 200.804 558.861Z" fill="currentColor"/>
<path d="M749.265 384.858C749.654 383.546 750.403 382.132 751.426 380.501C751.008 381.775 750.317 383.265 749.265 384.858Z" fill="currentColor"/>
<path d="M313.387 227.461C314.505 227.028 315.908 226.712 317.672 226.46C316.579 226.876 315.126 227.228 313.387 227.461Z" fill="currentColor"/>
<path d="M760.243 330.228C761.215 329.909 762.329 329.841 763.704 329.868C762.772 330.135 761.579 330.307 760.243 330.228Z" fill="currentColor"/>
<path d="M284.867 622.226C283.617 621.933 282.199 621.349 280.577 620.494C281.816 620.794 283.258 621.364 284.867 622.226Z" fill="currentColor"/>
<path d="M306.773 718.788C306.924 719.218 306.917 719.596 306.911 719.973C306.64 719.887 306.37 719.802 306.099 719.716C306.271 719.389 306.442 719.062 306.773 718.788Z" fill="currentColor"/>
<path d="M349.649 265.562C348.803 265.93 347.708 266.184 346.286 266.333C347.105 265.967 348.253 265.708 349.649 265.562Z" fill="currentColor"/>
<path d="M242.916 597.577C241.778 597.124 240.515 596.364 239.112 595.314C240.245 595.773 241.518 596.522 242.916 597.577Z" fill="currentColor"/>
<path d="M173.835 522.978C173.035 522.086 172.195 520.856 171.311 519.304C172.11 520.202 172.952 521.421 173.835 522.978Z" fill="currentColor"/>
<path d="M751.999 317.997C751.797 318.858 751.596 319.723 751.395 320.588C751.121 320.496 750.846 320.404 750.572 320.312C750.896 319.636 751.221 318.959 751.776 318.142C752.006 318.001 752 318 751.999 317.997Z" fill="currentColor"/>
<path d="M147.569 535.084C147.108 536.211 146.342 537.466 145.301 538.88C145.772 537.763 146.517 536.488 147.569 535.084Z" fill="currentColor"/>
<path d="M131.343 526.86C131.806 525.698 132.569 524.391 133.619 522.929C133.151 524.087 132.396 525.401 131.343 526.86Z" fill="currentColor"/>
<path d="M257.102 662.271C257.97 662.757 258.902 663.572 259.927 664.687C259.068 664.192 258.117 663.396 257.102 662.271Z" fill="currentColor"/>
<path d="M341.948 755.611C342.239 755.365 342.579 755.258 342.926 755.183C342.942 755.179 343.019 755.457 343.068 755.604C342.711 755.655 342.354 755.705 341.948 755.611Z" fill="currentColor"/>
<path d="M54.3413 466.931C54.6267 467.268 54.757 467.627 54.8873 467.987C54.7362 468.011 54.4585 468.074 54.4528 468.055C54.3448 467.693 54.2688 467.322 54.3413 466.931Z" fill="currentColor"/>
<path d="M113.089 518.326C113.926 518.819 114.857 519.617 115.879 520.716C115.04 520.221 114.112 519.426 113.089 518.326Z" fill="currentColor"/>
<path d="M89.0845 494.327C89.9243 494.816 90.86 495.611 91.892 496.704C91.0523 496.213 90.1163 495.423 89.0845 494.327Z" fill="currentColor"/>
<path d="M763.894 341.73C763.012 341.246 762.065 340.432 761.028 339.312C761.902 339.804 762.865 340.602 763.894 341.73Z" fill="currentColor"/>
<path d="M474.878 277.106C473.908 276.862 472.771 276.343 471.437 275.567C472.398 275.817 473.555 276.323 474.878 277.106Z" fill="currentColor"/>
<path d="M391.069 803.689C390.672 803.749 390.303 803.661 389.943 803.544C389.928 803.539 390 803.265 390.031 803.115C390.387 803.256 390.743 803.396 391.069 803.689Z" fill="currentColor"/>
<path d="M238.083 651.048C238.483 651.214 238.772 651.481 239.06 651.748C238.948 651.85 238.837 651.952 238.725 652.054C238.474 651.753 238.223 651.452 238.083 651.048Z" fill="currentColor"/>
<path d="M235.889 592.51C234.965 592.121 233.916 591.429 232.735 590.446C233.657 590.838 234.71 591.523 235.889 592.51Z" fill="currentColor"/>
<path d="M752.645 378.875C752.962 377.905 753.579 376.783 754.451 375.452C754.119 376.403 753.531 377.563 752.645 378.875Z" fill="currentColor"/>
<path d="M218.771 577.886C217.884 577.387 216.914 576.554 215.814 575.425C216.685 575.936 217.687 576.745 218.771 577.886Z" fill="currentColor"/>
<path d="M382.886 795.124C382.772 795.498 382.547 795.759 382.322 796.021C382.212 795.91 382.102 795.8 381.992 795.689C382.253 795.463 382.514 795.237 382.886 795.124Z" fill="currentColor"/>
<path d="M303.054 715.388C302.763 715.634 302.423 715.741 302.076 715.817C302.06 715.82 301.983 715.542 301.934 715.395C302.291 715.345 302.648 715.294 303.054 715.388Z" fill="currentColor"/>
<path d="M230.921 588.591C230.029 588.179 229.023 587.463 227.881 586.465C228.765 586.884 229.786 587.585 230.921 588.591Z" fill="currentColor"/>
<path d="M302.267 229.277C302.842 228.942 303.635 228.721 304.735 228.562C304.189 228.88 303.336 229.135 302.267 229.277Z" fill="currentColor"/>
<path d="M308.276 228.303C308.85 227.963 309.641 227.733 310.737 227.577C310.193 227.905 309.343 228.159 308.276 228.303Z" fill="currentColor"/>
<path d="M321.24 226.205C321.829 225.912 322.631 225.738 323.735 225.653C323.176 225.936 322.314 226.131 321.24 226.205Z" fill="currentColor"/>
<path d="M448.885 267.154C448.222 267.245 447.406 267.153 446.338 266.875C446.967 266.783 447.849 266.877 448.885 267.154Z" fill="currentColor"/>
<path d="M166.78 511.069C166.147 511.168 165.433 511.001 164.348 510.865C164.885 510.865 165.791 510.835 166.78 511.069Z" fill="currentColor"/>
<path d="M480.73 280.967C479.946 280.739 479.006 280.208 477.88 279.402C478.653 279.639 479.613 280.152 480.73 280.967Z" fill="currentColor"/>
<path d="M64.388 474.67C64.5974 474.84 64.691 475.041 64.7845 475.242C64.6573 475.278 64.5301 475.313 64.4028 475.348C64.3592 475.132 64.3156 474.916 64.388 474.67Z" fill="currentColor"/>
<path d="M247.01 657.133C247.145 657.372 247.161 657.605 247.178 657.837C247.05 657.83 246.921 657.824 246.793 657.817C246.826 657.586 246.859 657.356 247.01 657.133Z" fill="currentColor"/>
<path d="M152.772 527.187C152.576 527.957 152.1 528.894 151.35 530.001C151.547 529.232 152.019 528.292 152.772 527.187Z" fill="currentColor"/>

<path d="M246.868 600.631C246.332 600.489 245.629 600.085 244.764 599.413C245.302 599.553 246.001 599.961 246.868 600.631Z" fill="currentColor"/>
<path d="M340.602 663.813C340.661 663.245 340.957 662.466 341.503 661.482C341.449 662.052 341.143 662.828 340.602 663.813Z" fill="currentColor"/>
<path d="M251.136 664.024C251.132 664.083 250.858 664.009 250.858 664.009C250.858 664.009 251.14 663.966 251.136 664.024Z" fill="currentColor"/>
<path d="M254.026 666.863C254.086 666.867 254.011 667.147 254.011 667.147C254.011 667.147 253.967 666.859 254.026 666.863Z" fill="currentColor"/>
<path d="M351.024 763.86C351.084 763.864 351.008 764.147 351.008 764.147C351.008 764.147 350.963 763.856 351.024 763.86Z" fill="currentColor"/>
<path d="M357.002 773.002C357.156 772.748 357.292 772.479 357.473 772.244C357.517 772.188 357.711 772.247 357.835 772.254C357.654 772.457 357.473 772.66 357.144 772.929C356.995 772.996 357 773 357.002 773.002Z" fill="currentColor"/>
<path d="M366.923 779.883C366.968 779.845 367.112 780.099 367.112 780.099C367.112 780.099 366.877 779.922 366.923 779.883Z" fill="currentColor"/>

<path d="M342.507 659.808C342.567 659.222 342.877 658.429 343.442 657.434C343.384 658.021 343.071 658.811 342.507 659.808Z" fill="currentColor"/>
<path d="M119.998 527.997C119.844 528.252 119.708 528.522 119.527 528.757C119.484 528.813 119.289 528.753 119.164 528.747C119.345 528.544 119.527 528.341 119.856 528.071C120.005 528.004 120 528 119.998 527.997Z" fill="currentColor"/>
<path d="M255.837 606.508C255.299 606.395 254.583 606.033 253.697 605.416C254.238 605.526 254.948 605.893 255.837 606.508Z" fill="currentColor"/>

<path d="M346.5 651.804C346.564 651.221 346.876 650.429 347.437 649.426C347.374 650.009 347.062 650.802 346.5 651.804Z" fill="currentColor"/>
<path d="M348.547 647.81C348.613 647.238 348.921 646.457 349.481 645.473C349.418 646.047 349.103 646.824 348.547 647.81Z" fill="currentColor"/>
<path d="M258.855 608.416C258.334 608.318 257.645 607.979 256.805 607.387C257.332 607.481 258.01 607.828 258.855 608.416Z" fill="currentColor"/>
<path d="M199.074 612.117C199.029 612.156 198.885 611.901 198.885 611.901C198.885 611.901 199.119 612.079 199.074 612.117Z" fill="currentColor"/>
<path d="M319.76 270.704C319.445 270.977 318.962 271.165 318.225 271.278C318.511 271.007 319.052 270.813 319.76 270.704Z" fill="currentColor"/>
<path d="M763.422 360.831C763.542 360.279 763.919 359.548 764.564 358.651C764.448 359.207 764.064 359.93 763.422 360.831Z" fill="currentColor"/>
<path d="M794.853 366.975C794.857 366.912 795.152 366.991 795.152 366.991C795.152 366.991 794.849 367.038 794.853 366.975Z" fill="currentColor"/>
<path d="M757.568 370.823C757.648 370.265 757.968 369.511 758.546 368.574C758.471 369.136 758.14 369.881 757.568 370.823Z" fill="currentColor"/>
<path d="M781.561 369.119C781.439 369.664 781.065 370.388 780.423 371.277C780.54 370.727 780.924 370.013 781.561 369.119Z" fill="currentColor"/>
<path d="M799.139 373.025C799.135 373.084 798.857 373.01 798.857 373.01C798.857 373.01 799.143 372.966 799.139 373.025Z" fill="currentColor"/>
<path d="M798.86 376.751C798.352 376.544 797.703 376.064 796.937 375.296C797.453 375.498 798.087 375.988 798.86 376.751Z" fill="currentColor"/>
<path d="M770.481 386.164C770.38 386.701 770.033 387.415 769.423 388.289C769.518 387.747 769.877 387.044 770.481 386.164Z" fill="currentColor"/>
<path d="M203.998 310.002C204.252 310.156 204.52 310.292 204.754 310.472C204.811 310.516 204.752 310.71 204.746 310.834C204.543 310.653 204.34 310.472 204.071 310.143C204.003 309.995 204 310 203.998 310.002Z" fill="currentColor"/>
<path d="M204.003 315.998C203.743 315.843 203.468 315.706 203.228 315.523C203.172 315.481 203.236 315.28 203.244 315.153C203.451 315.336 203.658 315.519 203.93 315.854C203.996 316.005 204 316 204.003 315.998Z" fill="currentColor"/>
<path d="M219.078 299.119C219.032 299.158 218.886 298.901 218.886 298.901C218.886 298.901 219.124 299.08 219.078 299.119Z" fill="currentColor"/>
<path d="M772.428 383.143C772.329 383.667 771.991 384.354 771.384 385.164C771.473 384.627 771.831 383.966 772.428 383.143Z" fill="currentColor"/>
<path d="M750.86 328.752C750.365 328.552 749.74 328.085 749.017 327.333C749.522 327.526 750.126 328.006 750.86 328.752Z" fill="currentColor"/>
<path d="M656.683 271.189C656.587 271.786 656.219 272.588 655.597 273.617C655.699 273.027 656.055 272.21 656.683 271.189Z" fill="currentColor"/>
<path d="M768.579 389.154C768.447 389.682 768.062 390.375 767.407 391.208C767.534 390.672 767.93 389.995 768.579 389.154Z" fill="currentColor"/>
<path d="M129.27 529.814C129.411 529.245 129.827 528.493 130.517 527.555C130.377 528.123 129.96 528.877 129.27 529.814Z" fill="currentColor"/>
<path d="M181.816 534.961C181.354 534.69 180.808 534.137 180.221 533.287C180.697 533.553 181.215 534.116 181.816 534.961Z" fill="currentColor"/>
<path d="M144.76 539.213C144.638 539.802 144.237 540.583 143.563 541.563C143.687 540.976 144.084 540.19 144.76 539.213Z" fill="currentColor"/>
<path d="M186.831 541.927C186.367 541.663 185.818 541.117 185.22 540.28C185.696 540.54 186.222 541.093 186.831 541.927Z" fill="currentColor"/>
<path d="M190.765 547.088C190.291 546.795 189.732 546.199 189.103 545.297C189.582 545.589 190.131 546.188 190.765 547.088Z" fill="currentColor"/>
<path d="M504.191 246.075C504.675 246.33 505.262 246.872 505.934 247.707C505.444 247.454 504.869 246.908 504.191 246.075Z" fill="currentColor"/>
<path d="M175.778 526.14C175.332 525.822 174.819 525.206 174.262 524.287C174.715 524.604 175.214 525.222 175.778 526.14Z" fill="currentColor"/>
<path d="M495.203 237.166C495.748 237.347 496.43 237.808 497.215 238.57C496.659 238.396 495.999 237.922 495.203 237.166Z" fill="currentColor"/>
<path d="M493.104 235.352C493.61 235.523 494.252 235.953 495.004 236.657C494.489 236.491 493.865 236.051 493.104 235.352Z" fill="currentColor"/>
<path d="M202.72 561.257C202.186 560.974 201.561 560.37 200.873 559.439C201.416 559.72 202.023 560.328 202.72 561.257Z" fill="currentColor"/>
<path d="M61.999 469.999C61.8452 470.253 61.7089 470.521 61.5275 470.753C61.4834 470.81 61.2908 470.751 61.1665 470.745C61.3467 470.542 61.527 470.339 61.8547 470.069C62.0022 470.002 61.999 469.999 61.999 469.999Z" fill="currentColor"/>
<path d="M763.474 397.147C763.359 397.665 763.003 398.349 762.386 399.175C762.495 398.649 762.864 397.981 763.474 397.147Z" fill="currentColor"/>
<path d="M661.45 264.16C661.351 264.693 661.014 265.404 660.414 266.27C660.505 265.729 660.859 265.035 661.45 264.16Z" fill="currentColor"/>
<path d="M92.0023 427.998C91.7445 427.843 91.4715 427.707 91.2338 427.525C91.1775 427.482 91.2398 427.284 91.2475 427.157C91.453 427.339 91.6584 427.522 91.9302 427.854C91.9966 428.005 92.0001 428 92.0023 427.998Z" fill="currentColor"/>
<path d="M664.528 260.133C664.385 260.632 663.994 261.28 663.338 262.057C663.477 261.552 663.878 260.916 664.528 260.133Z" fill="currentColor"/>
<path d="M57.1149 462.926C57.1522 462.97 56.905 463.11 56.905 463.11C56.905 463.11 57.0777 462.882 57.1149 462.926Z" fill="currentColor"/>
<path d="M668.813 255.179C668.613 255.694 668.135 256.342 667.374 257.105C667.572 256.585 668.053 255.948 668.813 255.179Z" fill="currentColor"/>
<path d="M506.286 248.691C506.75 249.035 507.287 249.704 507.91 250.687C507.451 250.339 506.905 249.678 506.286 248.691Z" fill="currentColor"/>
<path d="M77.9981 484.998C77.8444 485.25 77.7093 485.518 77.5289 485.752C77.4851 485.808 77.2926 485.75 77.1685 485.745C77.3489 485.542 77.5293 485.34 77.8572 485.071C78.0047 485.004 78 485 77.9981 484.998Z" fill="currentColor"/>
<path d="M145.237 505.816C145.387 505.251 145.809 504.505 146.516 503.589C146.37 504.157 145.94 504.895 145.237 505.816Z" fill="currentColor"/>
<path d="M162.466 513.074C162.332 513.576 161.96 514.241 161.33 515.041C161.457 514.53 161.842 513.882 162.466 513.074Z" fill="currentColor"/>
<path d="M170.57 517.521C170.102 517.133 169.595 516.4 169.048 515.332C169.516 515.723 170.023 516.45 170.57 517.521Z" fill="currentColor"/>
<path d="M372.676 153.062C366.243 159.948 359.439 166.867 352.317 173.892C355.629 169.577 358.867 164.734 363.022 160.88C365.944 158.172 366.648 152.54 372.676 153.062Z" fill="currentColor"/>
<path d="M325.585 199.934C323.141 202.899 320.364 205.808 317.275 208.818C317.239 207.474 317.507 206.027 317.795 204.583C318.986 198.617 319.4 198.358 325.585 199.934Z" fill="currentColor"/>
<path d="M350.058 175.505C348.104 178.079 345.872 180.437 343.334 182.922C343.637 180.635 343.853 177.997 345.044 175.917C345.523 175.079 348.137 175.462 350.058 175.505Z" fill="currentColor"/>
<path d="M390.77 135.038C388.571 137.608 386.104 140.192 383.327 142.9C383.319 141.592 383.621 140.159 383.961 138.363C384 138 383.998 138.003 383.998 138.003C386.166 137.02 388.334 136.036 390.77 135.038Z" fill="currentColor"/>
<path d="M333.557 191.998C331.815 194.206 329.71 196.439 327.297 198.789C325.763 193.643 329.671 193.006 333.557 191.998Z" fill="currentColor"/>
<path d="M382.702 142.945C381.561 144.612 380.098 146.207 378.333 147.925C378.688 145.657 377.105 141.385 382.702 142.945Z" fill="currentColor"/>
<path d="M342.77 183.045C341.574 184.621 340.1 186.213 338.312 187.898C336.967 184.044 338.451 182.387 342.77 183.045Z" fill="currentColor"/>
<path d="M377.719 148.114C376.585 149.64 375.121 151.248 373.342 152.951C374.481 151.429 375.935 149.812 377.719 148.114Z" fill="currentColor"/>
<path d="M373.674 147.885C373.446 147.954 373.227 147.918 373.008 147.883C373.233 147.849 373.458 147.815 373.674 147.885Z" fill="currentColor"/>
<path d="M337.292 188.3C336.943 189.038 336.261 189.871 335.288 190.842C335.651 190.118 336.306 189.255 337.292 188.3Z" fill="currentColor"/>
<path d="M346.854 170.975C346.858 170.913 347.151 170.991 347.151 170.991C347.151 170.991 346.85 171.037 346.854 170.975Z" fill="currentColor"/>
<path d="M384.002 137.999C383.747 137.846 383.478 137.71 383.244 137.529C383.187 137.485 383.245 137.292 383.251 137.167C383.454 137.348 383.657 137.528 383.929 137.856C383.998 138.003 384.002 137.999 384.002 137.999Z" fill="currentColor"/>
<path d="M316.654 209.079C316.448 209.554 315.981 210.146 315.236 210.818C315.436 210.331 315.915 209.763 316.654 209.079Z" fill="currentColor"/>
<path d="M314.641 211.078C314.441 211.554 313.984 212.15 313.25 212.837C313.443 212.35 313.913 211.774 314.641 211.078Z" fill="currentColor"/>
<path d="M390.498 129.495C390.493 129.477 390.503 129.513 390.498 129.495V129.495Z" fill="currentColor"/>
<path d="M374.506 144.498C374.488 144.503 374.524 144.493 374.506 144.498V144.498Z" fill="currentColor"/>
<path d="M389.496 132.495C389.49 132.478 389.501 132.513 389.496 132.495V132.495Z" fill="currentColor"/>
<path d="M156.17 369.22C152.236 373.69 147.903 378.161 143.258 382.744C140.87 377.702 146.921 376.409 147.897 372.328C148 372 147.997 372.004 147.997 372.004C150.588 371.076 153.179 370.148 156.17 369.22Z" fill="currentColor"/>
<path d="M134.493 391.045C132.4 393.538 129.974 396.089 127.237 398.746C125.375 392.388 125.656 392.087 134.493 391.045Z" fill="currentColor"/>
<path d="M115.571 409.849C114.2 411.717 112.512 413.477 110.502 415.357C109.967 408.369 110.163 408.147 115.571 409.849Z" fill="currentColor"/>
<path d="M124.555 400.962C123.298 402.67 121.71 404.383 119.814 406.181C119.001 404.816 118.497 403.364 117.812 401.392C120.424 401.219 122.324 401.093 124.555 400.962Z" fill="currentColor"/>
<path d="M139.654 385.893C139.132 386.879 138.341 387.798 137.258 388.814C137.773 387.883 138.579 386.854 139.654 385.893Z" fill="currentColor"/>
<path d="M153.141 363.025C153.137 363.085 152.855 363.01 152.855 363.01C152.855 363.01 153.145 362.965 153.141 363.025Z" fill="currentColor"/>
<path d="M160.652 365.101C160.439 365.555 159.97 366.119 159.223 366.758C159.429 366.292 159.913 365.752 160.652 365.101Z" fill="currentColor"/>
<path d="M153.111 366.923C153.149 366.968 152.897 367.111 152.897 367.111C152.897 367.111 153.073 366.878 153.111 366.923Z" fill="currentColor"/>
<path d="M164.002 355.999C163.741 355.843 163.464 355.706 163.224 355.523C163.168 355.48 163.233 355.278 163.242 355.15C163.45 355.333 163.658 355.516 163.932 355.852C163.997 356.004 164 356 164.002 355.999Z" fill="currentColor"/>
<path d="M148.002 371.998C147.742 371.843 147.467 371.707 147.228 371.523C147.172 371.48 147.235 371.28 147.244 371.153C147.451 371.336 147.658 371.519 147.931 371.853C147.997 372.004 148 372 148.002 371.998Z" fill="currentColor"/>
<path d="M140.856 374.975C140.86 374.914 141.147 374.99 141.147 374.99C141.147 374.99 140.852 375.036 140.856 374.975Z" fill="currentColor"/>
<path d="M477.761 818.86C470.744 820.155 466.027 818.136 463.495 813.037C461.301 808.617 462.235 803.221 465.807 799.676C469.468 796.043 475.085 795.276 479.636 797.919C483.384 800.097 485.351 803.436 485.363 807.789C485.379 813.009 482.85 816.617 477.761 818.86Z" fill="currentColor"/>

<path d="M462.945 119.152C466.416 113.083 470.651 110.77 476.021 111.712C480.621 112.518 484.566 116.468 485.21 121.057C485.895 125.937 484.387 130.048 480.166 132.703C476.032 135.302 471.648 135.401 467.478 132.615C462.714 129.433 461.469 124.917 462.945 119.152Z" fill="currentColor"/>
<path d="M142.45 468.219C138.858 475.891 132.876 478.798 126.793 476.155C120.775 473.541 118.084 466.713 120.711 460.723C122.933 455.657 128.494 452.856 133.855 454.102C139.848 455.495 142.995 460.467 142.45 468.219Z" fill="currentColor"/>
<path d="M820.064 476.404C812.739 477.476 808.009 475.155 805.783 469.702C803.888 465.057 805.443 459.397 809.479 456.252C813.474 453.138 819.141 453.137 823.422 456.151C830.328 461.015 829.617 473.046 820.064 476.404Z" fill="currentColor"/>
<path d="M304.493 217.499C304.473 217.506 304.513 217.492 304.493 217.499V217.499Z" fill="currentColor"/>
</g>
<defs>
<clipPath id="clip0_5_55">
<rect width="960" height="958" fill="currentColor"/>
</clipPath>
</defs>
</svg>
